<svg width="74" height="24" viewBox="0 0 74 24" fill="none" xmlns="http://www.w3.org/2000/svg">
<g clip-path="url(#clip0_158_2)">
<path d="M24.8142 8.93161C23.3255 8.93161 22.2028 10.2219 22.2028 11.9355C22.2028 13.649 23.3373 14.9394 24.841 14.9394C26.3292 14.9394 27.4519 13.649 27.4519 11.9355C27.4519 10.2219 26.3179 8.93161 24.8142 8.93161ZM32.3585 0H0V24H32.3585L40 12.0258L32.3585 0ZM16.9198 15.7352L16.8448 15.8049C15.6368 16.9249 14.2382 17.4926 12.6882 17.4926C11.2226 17.4926 9.90047 16.9326 8.96557 15.9159C8.03915 14.9074 7.5283 13.4937 7.5283 11.9355C7.5283 10.4387 8.04717 9.04516 8.99057 8.0129C9.94764 6.95948 11.2547 6.37935 12.6769 6.37935C14.2807 6.37935 15.3896 6.80465 16.5113 7.84671L16.6712 7.99536L15.0943 10.0712L14.9307 9.92206C14.2429 9.29497 13.642 8.93161 12.6066 8.93161C11.2335 8.93161 10.1165 10.2792 10.1165 11.9355C10.1165 13.6934 11.2259 14.9688 12.7542 14.9688C13.4269 14.9688 14.025 14.7938 14.4915 14.4609V13.3445H12.4085V10.9228H16.9198V15.7352ZM28.5594 15.8606C27.5887 16.913 26.2585 17.4926 24.8142 17.4926C23.3698 17.4926 22.0425 16.9172 21.0816 15.8715C20.1354 14.8418 19.6142 13.4457 19.6142 11.9355C19.6099 11.2063 19.7387 10.4835 19.993 9.8095C20.2474 9.13548 20.6221 8.52381 21.0953 8.01032C22.066 6.95794 23.3962 6.3809 24.841 6.3809C26.2859 6.3809 27.6123 6.9569 28.5731 8.00206C29.5193 9.03174 30.0406 10.4279 30.0406 11.9381C30.0446 12.6668 29.9156 13.3891 29.6613 14.0627C29.407 14.7362 29.0324 15.3475 28.5594 15.8606Z" fill="#202020"/>
<path fill-rule="evenodd" clip-rule="evenodd" d="M74 0H41V24H74V0ZM51 6.70001H54V17.8H51V6.70001ZM56 8.88142H59.1216V17.8133H62.3784V8.88142H65.5V6.64999H56V8.88142Z" fill="#FF6C00"/>
</g>
<defs>
<clipPath id="clip0_158_2">
<rect width="74" height="24" fill="white"/>
</clipPath>
</defs>
</svg>
