<svg xmlns="http://www.w3.org/2000/svg" width="1600" height="320" viewBox="0 0 1600 320" fill="rgb(247 246 244)"><path d="M0,160L30,160C60,160,120,160,180,144C240,128,300,96,360,96C420,96,480,128,540,144C600,160,660,160,720,154.7C780,149,840,139,900,122.7C960,107,1020,85,1080,106.7C1140,128,1200,192,1260,224C1320,256,1380,256,1410,256L1440,256L1440,320L1410,320C1380,320,1320,320,1260,320C1200,320,1140,320,1080,320C1020,320,960,320,900,320C840,320,780,320,720,320C660,320,600,320,540,320C480,320,420,320,360,320C300,320,240,320,180,320C120,320,60,320,30,320L0,320Z"></path></svg>