<!-- <svg xmlns="http://www.w3.org/2000/svg" width="1600" height="320" viewBox="0 0 1600 320"><path d="M0,192L60,202.7C120,213,240,235,360,229.3C480,224,600,192,720,176C840,160,960,160,1080,154.7C1200,149,1320,139,1380,133.3L1440,128L1440,0L1380,0C1320,0,1200,0,1080,0C960,0,840,0,720,0C600,0,480,0,360,0C240,0,120,0,60,0L0,0Z" fill="rgb(247 246 244)"></path></svg> -->
<svg width="1600" height="222" viewBox="0 0 1600 222" fill="none" xmlns="http://www.w3.org/2000/svg">
<path fill-rule="evenodd" clip-rule="evenodd" d="M635.364 81.3493C448.303 122.34 258.187 164 5.07054e-06 164L1.94079e-05 -0.000139876L1600 0L1600 222L1600 222L1600 31.9999C1160.49 -33.7212 901.009 23.1386 635.364 81.3493Z" fill="rgb(247 246 244)"/>
</svg>