<!-- <svg xmlns:xlink="http://www.w3.org/1999/xlink" id="wave" style="transform:rotate(0deg); transition: 0.3s" viewBox="0 0 1440 490" version="1.1" xmlns="http://www.w3.org/2000/svg"><defs><linearGradient id="sw-gradient-0" x1="0" x2="0" y1="1" y2="0"><stop stop-color="rgba(243, 106, 62, 1)" offset="0%"/><stop stop-color="rgba(255, 179, 11, 1)" offset="100%"/></linearGradient></defs><path style="transform:translate(0, 0px); opacity:1" fill="url(#sw-gradient-0)" d="M0,294L80,318.5C160,343,320,392,480,383.8C640,376,800,310,960,236.8C1120,163,1280,82,1440,98C1600,114,1760,229,1920,236.8C2080,245,2240,147,2400,147C2560,147,2720,245,2880,253.2C3040,261,3200,180,3360,122.5C3520,65,3680,33,3840,49C4000,65,4160,131,4320,130.7C4480,131,4640,65,4800,32.7C4960,0,5120,0,5280,40.8C5440,82,5600,163,5760,236.8C5920,310,6080,376,6240,343C6400,310,6560,180,6720,147C6880,114,7040,180,7200,179.7C7360,180,7520,114,7680,98C7840,82,8000,114,8160,138.8C8320,163,8480,180,8640,187.8C8800,196,8960,196,9120,171.5C9280,147,9440,98,9600,98C9760,98,9920,147,10080,204.2C10240,261,10400,327,10560,343C10720,359,10880,327,11040,261.3C11200,196,11360,98,11440,49L11520,0L11520,490L11440,490C11360,490,11200,490,11040,490C10880,490,10720,490,10560,490C10400,490,10240,490,10080,490C9920,490,9760,490,9600,490C9440,490,9280,490,9120,490C8960,490,8800,490,8640,490C8480,490,8320,490,8160,490C8000,490,7840,490,7680,490C7520,490,7360,490,7200,490C7040,490,6880,490,6720,490C6560,490,6400,490,6240,490C6080,490,5920,490,5760,490C5600,490,5440,490,5280,490C5120,490,4960,490,4800,490C4640,490,4480,490,4320,490C4160,490,4000,490,3840,490C3680,490,3520,490,3360,490C3200,490,3040,490,2880,490C2720,490,2560,490,2400,490C2240,490,2080,490,1920,490C1760,490,1600,490,1440,490C1280,490,1120,490,960,490C800,490,640,490,480,490C320,490,160,490,80,490L0,490Z"/></svg> -->
<svg width="1600" height="222" viewBox="0 0 1600 222" fill="none" xmlns="http://www.w3.org/2000/svg">
<path fill-rule="evenodd" clip-rule="evenodd" d="M964.636 140.651C1151.7 99.6603 1341.81 58.0002 1600 58.0002V222H0V0L2.57099e-06 190C439.51 255.721 698.991 198.861 964.636 140.651Z" fill="rgb(247 246 244)"/>
</svg>