<svg width="1920" height="118" viewBox="0 0 1920 118" fill="none" xmlns="http://www.w3.org/2000/svg">
<path d="M1642.36 71.2598L1680 62.0259L1920 11.0859V0H0V117.127L240 64.0981C242.965 63.6051 246.106 63.0944 249.411 62.5713C273.591 58.7444 307.312 54.1366 345.628 51.0436C415.361 45.4144 526.389 42.2348 620.613 76.0597C693.664 102.284 737.374 112.128 779.001 112.876C820.692 113.624 872.93 105.372 960.742 75.2873C1143.75 12.5868 1305.95 37.8603 1435.07 71.9533C1484 84.8745 1513.55 88.3255 1538.3 88.0437C1563.9 87.7523 1592.82 83.4148 1642.36 71.2598Z" fill="#F7F6F4"/>
</svg>
