<svg width="1920" height="125" viewBox="0 0 1920 125" fill="none" xmlns="http://www.w3.org/2000/svg">
<path d="M0 108.599V125H1920V0.51001L1680 56.1984C1634.83 65.9436 1589.95 72.6855 1541.94 73.2321C1479.47 73.9432 1419.95 64.1338 1353.4 46.562C1251.55 19.6692 1161.47 9.98062 1064.42 43.228C958.296 79.5869 866.569 99.7085 773.259 98.0332C679.885 96.3567 597.558 72.9796 512.529 42.4556C486.947 33.2722 434.828 30.0926 371.366 35.2155C343.084 37.4985 317.694 40.9548 299.415 43.8479C290.349 45.2826 283.223 46.5484 278.587 47.4095C276.273 47.8391 274.594 48.1653 273.618 48.358C273.131 48.4543 272.82 48.517 272.696 48.5423L272.65 48.5516L240 55.3521L0 108.599Z" fill="#F7F6F4"/>
</svg>
