<svg width="340" height="332" viewBox="0 0 340 332" fill="none" xmlns="http://www.w3.org/2000/svg">
<g clip-path="url(#clip0_126_2620)">
<path d="M289.389 296.062C289.935 296.686 290.518 297.278 291.133 297.835C291.633 298.154 292.165 298.419 292.72 298.625C292.9 300.205 293.079 301.82 293.33 304.075C294.013 303.263 294.501 302.947 294.573 302.567C294.982 300.248 295.291 297.914 295.642 295.581L298.019 295.854C297.823 296.654 297.672 297.464 297.567 298.28C297.415 299.778 297.353 301.284 297.38 302.789C297.467 303.025 297.614 303.234 297.806 303.396C297.999 303.557 298.231 303.665 298.478 303.708C298.852 303.708 299.376 303.112 299.512 302.682C299.676 302.01 299.724 301.316 299.656 300.628C299.575 299.101 299.894 297.579 300.582 296.213C300.892 296.488 301.129 296.837 301.272 297.226C301.415 297.616 301.459 298.035 301.401 298.446C301.401 299.831 301.358 301.217 301.458 302.596C301.494 302.99 301.975 303.349 302.578 304.182C302.829 302.947 302.959 302.301 303.095 301.655C303.411 300.183 303.662 298.683 304.1 297.247C304.215 296.866 304.94 296.679 305.385 296.406C305.387 298.628 305.519 300.848 305.78 303.055C306.498 307.42 307.022 311.814 307.446 316.216C307.053 316.354 306.653 316.471 306.247 316.568L265.559 324.114C264.123 318.643 262.687 313.171 261.251 307.693C261.08 306.745 260.989 305.785 260.978 304.821C262.543 305.396 264.073 306.3 265.681 306.465C272.315 307.183 278.461 305.41 284.147 302.064C286.301 300.808 287.788 298.977 287.673 296.263L289.389 296.062Z" fill="#313132"/>
<path d="M265.559 324.113L306.247 316.567C306.653 316.471 307.053 316.354 307.446 316.216L327.385 312.755C328.505 314.593 328.627 316.668 329 318.815C328.544 319.183 328.036 319.48 327.492 319.698C307.925 323.69 288.328 327.658 268.704 331.602C268.226 331.647 267.745 331.647 267.268 331.602C265.616 329.383 266.069 326.626 265.559 324.113Z" fill="#76BCE4"/>
<path d="M276.487 203.894C274.53 202.765 272.879 201.175 271.676 199.263L273.112 197.77C279.818 190.877 286.086 183.625 290.997 175.318C292.548 172.697 293.79 169.897 295.168 167.176C295.921 165.843 296.59 164.464 297.172 163.048C298.572 158.955 299.843 154.82 301.157 150.706C302.19 151.337 303.203 152.005 304.258 152.594C304.976 152.974 305.694 153.24 306.412 153.556C305.91 157.34 304.115 160.678 302.664 164.118C297.567 176.273 290.602 187.33 282.424 197.626C280.665 199.88 278.964 202.271 276.487 203.894Z" fill="#76BCE4"/>
<path d="M327.384 312.755L307.475 316.216C307.051 311.814 306.549 307.42 305.809 303.055C305.547 300.849 305.416 298.628 305.414 296.406L305.507 296.198C308.988 295.927 312.489 296.277 315.846 297.232C322.229 299.192 327.693 306.932 327.384 312.755Z" fill="#F69422"/>
<path d="M72.6432 202.221L71.796 200.527C69.9303 199.708 68.2719 198.481 66.9424 196.937C66.7998 196.79 66.6594 196.64 66.5186 196.489C65.6455 195.552 64.7614 194.604 63.3022 194.56C63.4389 195.943 64.3036 196.893 65.1522 197.825C65.4183 198.118 65.6829 198.408 65.9229 198.71C66.4714 199.397 66.9839 200.115 67.4967 200.834C68.7425 202.581 69.9901 204.329 71.7601 205.632C75.682 210.096 80.0862 214.112 84.892 217.608C86.2658 218.602 87.6901 219.522 89.1142 220.443C89.7592 220.859 90.4044 221.276 91.0446 221.7L91.038 221.714C92.3112 222.77 93.6467 223.748 95.0372 224.644C98.8952 226.841 102.799 228.952 106.748 230.976C108.928 232.091 111.149 233.123 113.371 234.155C114.412 234.639 115.453 235.122 116.491 235.615L117.438 234.94C117.485 233.989 117.527 233.036 117.569 232.084C117.855 225.667 118.14 219.236 119.678 212.984C120.078 211.349 120.541 209.728 121.004 208.109L121.004 208.108C121.305 207.053 121.607 205.999 121.89 204.942C121.157 205.087 120.425 205.233 119.692 205.378L119.688 205.379C117.122 205.888 114.557 206.397 111.989 206.888C111.442 206.992 110.889 207.059 110.333 207.126C110.086 207.155 109.838 207.185 109.591 207.218L96.1802 208.924C95.4802 208.568 94.7361 208.306 93.9674 208.145C92.5485 208.041 91.1112 208.048 89.6775 208.055L89.6767 208.055C89.3188 208.057 88.9611 208.058 88.604 208.058C83.613 207.453 78.8084 205.791 74.51 203.183C74.1168 202.942 73.7017 202.741 73.2854 202.539C73.0707 202.435 72.8557 202.331 72.6432 202.221Z" fill="#76BCE4"/>
<path d="M300.582 296.212C299.894 297.579 299.575 299.101 299.656 300.628C299.724 301.316 299.676 302.01 299.512 302.682C299.376 303.112 298.852 303.687 298.478 303.708C298.231 303.665 297.999 303.557 297.806 303.395C297.614 303.234 297.467 303.025 297.38 302.789C297.353 301.284 297.415 299.778 297.567 298.28C297.672 297.464 297.823 296.653 298.019 295.853C298.375 295.546 298.83 295.376 299.3 295.376C299.771 295.376 300.226 295.546 300.582 295.853V296.212Z" fill="#FCA808"/>
<path d="M300.582 296.212V295.861C302.241 295.681 303.906 295.272 305.479 296.191L305.385 296.406C304.94 296.679 304.215 296.866 304.1 297.246C303.662 298.682 303.382 300.183 303.095 301.655C302.959 302.301 302.829 302.947 302.578 304.182C301.975 303.349 301.494 302.99 301.458 302.595C301.358 301.217 301.386 299.831 301.401 298.445C301.459 298.035 301.415 297.616 301.272 297.226C301.129 296.836 300.892 296.488 300.582 296.212Z" fill="#FDB204"/>
<path d="M116.491 235.615L117.439 234.94L118.063 235.809L117.841 236.074L116.491 235.615Z" fill="#3F94B6"/>
<path d="M49.0431 167.679C50.228 168.016 49.553 169.151 49.9695 169.833C49.6631 169.115 49.3543 168.397 49.0431 167.679Z" fill="#0E7499"/>
<path d="M128.014 109.658V102.873C127.296 102.565 126.664 102.328 126.069 102.019C125.423 101.737 124.875 101.272 124.492 100.681C124.109 100.09 123.908 99.399 123.915 98.6947C123.915 93.5156 123.915 88.3437 123.915 83.179C123.915 82.9493 124.173 82.7267 124.417 82.3175L127.461 83.3442C127.461 80.7522 127.461 78.3901 127.461 76.0351C127.413 75.0671 127.52 74.0975 127.777 73.1631C127.919 72.8575 128.135 72.5914 128.404 72.3886C128.673 72.1857 128.988 72.0523 129.321 72C129.643 72.0561 129.948 72.1849 130.213 72.3765C130.478 72.568 130.696 72.8174 130.85 73.1057C131.149 73.8825 131.302 74.7075 131.303 75.5397C131.418 76.9182 131.446 78.3039 131.518 79.7399C132.66 80.0702 133.873 80.1132 134.648 80.7163C135.589 81.4343 136.565 80.903 137.398 81.2836C138.382 81.7287 139.208 82.5616 140.213 82.9277C140.753 83.0844 141.227 83.4133 141.563 83.8644C141.898 84.3155 142.077 84.864 142.072 85.4263C142.195 87.6593 142.482 89.9353 142.195 92.1251C141.441 97.9767 141.836 103.843 141.699 109.701L128.014 109.658Z" fill="#F1CDCD"/>
<path d="M138.274 139.132L138.267 139.132C138.274 139.132 138.282 139.132 138.289 139.132C138.296 139.132 138.303 139.132 138.31 139.132C136.723 143.282 133.83 146.477 130.613 149.377C129.091 150.591 127.492 151.704 125.824 152.709C124.819 152.213 124.046 151.345 123.67 150.289C121.516 145.759 119.319 141.228 117.094 136.719C116.929 136.385 116.615 136.129 116.295 135.867C116.182 135.775 116.068 135.682 115.959 135.585C119.262 132.584 122.005 129.173 123.419 124.873C123.856 123.538 124.199 122.172 124.542 120.807C124.701 120.175 124.859 119.543 125.027 118.914L124.992 118.913C125.214 116.092 125.437 113.27 125.71 110.211L128.043 109.658L141.749 109.702C142.234 109.684 142.709 109.845 143.082 110.155C143.456 110.465 143.702 110.902 143.774 111.382C143.829 111.654 143.863 111.93 143.875 112.207C144.061 121.197 142.977 129.949 139.014 138.155C138.805 138.508 138.557 138.835 138.274 139.132Z" fill="#76BCE4"/>
<path d="M101.499 139.72C102.921 139.542 104.341 139.364 105.721 139.024C107.521 138.573 109.289 137.968 111.056 137.365C111.649 137.162 112.242 136.959 112.836 136.762C113.534 136.527 114.219 136.255 114.906 135.983C115.244 135.849 115.583 135.715 115.923 135.585C116.042 135.699 116.173 135.811 116.305 135.922C116.603 136.176 116.903 136.43 117.058 136.719C119.283 141.228 121.459 145.758 123.634 150.289C124.01 151.345 124.783 152.213 125.788 152.709C125.234 153.051 124.687 153.407 124.14 153.763C122.953 154.536 121.767 155.308 120.504 155.933C116.323 158.071 111.81 159.486 107.157 160.119C107.038 159.161 106.824 158.218 106.518 157.304C104.637 153.111 102.712 148.932 100.702 144.79C99.8665 143.329 99.4678 141.659 99.5533 139.979C100.199 139.882 100.849 139.801 101.499 139.72L101.499 139.72Z" fill="#76BCE4"/>
<path d="M99.5533 139.979C99.4591 141.657 99.8478 143.326 100.673 144.79C102.684 148.932 104.608 153.111 106.489 157.304C106.795 158.218 107.009 159.161 107.128 160.119C104.921 160.982 102.602 161.211 100.286 161.439C99.2723 161.539 98.259 161.638 97.2557 161.791C96.1388 161.895 95.0169 161.933 93.8956 161.906L92.8186 161.834C92.0717 160.418 91.3231 159.001 90.5741 157.583C88.6661 153.972 86.7555 150.356 84.8633 146.721C83.6895 144.669 82.9559 142.395 82.7093 140.044L99.5533 139.979Z" fill="#76BCE4"/>
<path d="M84.4076 180.335C83.8212 179.999 83.2857 179.582 82.817 179.095C82.0182 177.953 81.1433 176.866 80.2686 175.778C78.5801 173.679 76.8918 171.581 75.752 169.093C75.6819 168.938 75.5175 168.825 75.3537 168.712C75.2827 168.663 75.2119 168.614 75.1489 168.562C75.0566 168.289 74.9693 168.015 74.8822 167.741C74.6783 167.1 74.4751 166.462 74.2084 165.848C73.7636 164.828 73.3217 163.806 72.8798 162.785C71.3529 159.255 69.8255 155.724 68.1773 152.249C67.1266 150.328 65.9713 148.466 64.7166 146.671C64.135 145.73 64.1063 144.854 65.1187 144.165C65.3687 144.37 65.6149 144.579 65.8607 144.789C66.356 145.21 66.8502 145.631 67.3732 146.01C69.6985 147.826 72.6267 148.691 75.5654 148.43C78.2291 148.171 79.263 146.383 77.8988 144.122C77.2629 143.053 76.5274 142.052 75.7873 141.044C75.5332 140.698 75.2783 140.351 75.0269 140.001C75.4768 139.941 75.9267 139.882 76.3767 139.823C77.2765 139.705 78.1764 139.587 79.0763 139.462C80.3058 139.23 81.5777 139.441 82.6662 140.058C82.9128 142.409 83.6464 144.683 84.8202 146.735C86.0586 149.097 87.3049 151.459 88.5533 153.825L88.5536 153.826C89.9612 156.494 91.3714 159.166 92.7755 161.849C92.4584 162.461 92.142 163.074 91.8255 163.688C91.117 165.061 90.4077 166.436 89.6881 167.801C89.195 168.735 88.6906 169.664 88.1861 170.592C87.0893 172.61 85.9927 174.629 85.0141 176.704C84.7731 177.253 84.6738 177.878 84.6064 178.522C84.679 177.883 84.7895 177.261 85.05 176.711C86.0349 174.633 87.1312 172.613 88.2277 170.591C88.73 169.666 89.2324 168.74 89.7241 167.808C90.4427 166.445 91.151 165.072 91.8584 163.701L91.8589 163.7L91.8604 163.697L91.8616 163.695C92.1781 163.081 92.4944 162.468 92.8114 161.856L93.8884 161.928C93.9418 162.466 94.0875 162.99 94.3192 163.479C100.48 171.721 107.322 179.231 116.677 183.992C116.834 184.055 116.941 184.216 117.049 184.38C117.1 184.456 117.152 184.533 117.209 184.602C116.67 185.736 115.701 186.038 114.523 186.26C110.646 187.069 106.734 187.07 102.82 187.071C102.009 187.071 101.197 187.071 100.386 187.079C97.9053 186.753 95.4743 186.121 93.1489 185.198C90.7728 184.259 88.6344 182.944 86.4922 181.626C85.7992 181.199 85.1058 180.773 84.4038 180.359L84.4076 180.335Z" fill="#76BCE4"/>
<path d="M75.0772 139.986C76.025 141.357 77.0589 142.678 77.9492 144.107C79.3133 146.383 78.2794 148.171 75.6157 148.415C72.6545 148.677 69.7054 147.796 67.3732 145.952C66.5906 145.385 65.8727 144.725 65.1188 144.107C64.8244 143.533 64.5228 142.958 64.2213 142.391L63.8551 136.389C63.9316 134.625 63.3624 132.895 62.254 131.521C61.7873 130.86 61.8591 129.733 61.9309 128.836C61.9309 128.469 62.6489 128.118 63.0366 127.816L64.5279 124.738C68.7845 123.264 77.4576 120.913 78.0982 123.299C78.7388 125.685 77.3946 130.492 76.6424 132.598C76.3253 134.212 75.648 135.734 74.6608 137.049C74.3408 137.499 74.2056 138.054 74.2831 138.601C74.3606 139.147 74.6448 139.643 75.0772 139.986Z" fill="#F4CAC8"/>
<path d="M75.3141 116.996C75.1143 116.204 74.8527 115.428 74.5315 114.677C73.0094 111.604 70.0225 110.786 67.2152 112.667C66.512 113.206 65.8518 113.799 65.2408 114.44L63.7402 114.44C60.4446 114.691 59.1953 115.589 58.5204 118.748C58.3373 119.828 57.8021 120.818 56.9983 121.563C55.8208 122.675 55.2033 124.04 55.8208 125.705C55.8321 125.702 55.8435 125.7 55.8549 125.697C55.9132 125.917 55.9557 126.156 55.9985 126.397C56.1046 126.994 56.2124 127.6 56.5675 127.945C57.1341 128.451 57.5799 129.077 57.8719 129.778C58.1639 130.479 58.2948 131.237 58.2548 131.995C58.2332 134.012 59.5256 135.355 61.3996 136.008C62.2043 136.216 63.0261 136.351 63.8551 136.41C63.9316 134.647 63.3623 132.916 62.254 131.543C61.7873 130.882 61.8591 129.755 61.9309 128.857C61.9554 128.607 62.2819 128.38 62.6076 128.154C62.7584 128.049 62.909 127.945 63.0294 127.838L66.766 127.302L66.727 127.342L66.7844 127.299L66.766 127.302L67.7035 126.33C67.7568 126.266 67.8088 126.185 67.8607 126.105C67.9763 125.926 68.0915 125.748 68.2204 125.748C70.2269 125.59 72.1504 124.879 73.7776 123.695C74.3517 123.867 74.8577 124.214 75.2246 124.688C75.5916 125.162 76.9625 125.68 76.9852 126.279L78.4212 126.193C78.5429 126.074 78.6684 125.958 78.7944 125.841C78.9732 125.675 79.1532 125.508 79.3259 125.331C80.0038 124.721 79.3317 123.988 79.5747 123.109C79.8177 122.23 79.8042 121.3 79.5359 120.428C79.3187 119.466 78.7844 118.604 78.0188 117.982C77.2532 117.359 76.3006 117.012 75.3141 116.996Z" fill="url(#paint0_linear_126_2620)"/>
<path fill-rule="evenodd" clip-rule="evenodd" d="M284.769 291.34C285.057 291.339 285.345 291.337 285.634 291.337C285.488 290.767 285.345 290.197 285.202 289.626C284.845 288.2 284.488 286.771 284.083 285.335C283.799 284.322 283.472 283.308 283.145 282.294C283.009 281.872 282.873 281.45 282.74 281.027L264.159 288.408C264.164 288.413 264.169 288.418 264.174 288.422L256.728 291.467C256.753 291.638 256.769 291.813 256.785 291.988C256.852 292.713 256.919 293.439 257.625 293.937L257.596 293.937C258.01 297.751 259.163 301.448 260.992 304.821C261.476 304.999 261.956 305.208 262.436 305.417C263.51 305.884 264.584 306.351 265.695 306.465C272.329 307.176 278.475 305.41 284.162 302.064C286.294 300.808 287.802 298.977 287.687 296.263L287.127 295.602L287.156 295.602C287.203 294.049 286.68 292.531 285.684 291.337L285.679 291.338C283.598 291.375 281.533 291.413 279.469 291.106C281.232 291.353 282.995 291.346 284.769 291.34ZM275.077 290.399C274.31 290.397 273.528 290.459 272.758 290.521C272.612 290.532 272.467 290.544 272.322 290.555C272.041 290.576 271.762 290.587 271.485 290.587C271.779 290.588 272.074 290.578 272.372 290.555C272.511 290.544 272.65 290.533 272.79 290.522C273.545 290.461 274.316 290.399 275.077 290.399ZM264.273 294.116C263.915 294.035 263.552 293.976 263.184 293.934C263.56 293.975 263.933 294.034 264.302 294.116C266.409 294.526 268.55 294.733 270.695 294.734C268.54 294.735 266.389 294.528 264.273 294.116ZM273.78 294.963C273.088 294.791 272.378 294.703 271.667 294.702C272.388 294.701 273.107 294.788 273.808 294.963C274.247 295.13 274.688 295.252 275.131 295.34C274.679 295.253 274.228 295.132 273.78 294.963Z" fill="#A1D3EF"/>
<path d="M191.233 191.387L187.011 190.855L193.717 190.468H206.332L221.41 190.518L224.598 190.791C224.649 190.844 224.684 190.91 224.701 190.982C224.717 191.054 224.714 191.13 224.691 191.2L196.23 191.272C194.579 191.293 192.906 191.351 191.233 191.387Z" fill="#FA990F"/>
<path d="M270.534 275.8C269.536 273.811 267.426 272.325 268.237 269.762C269.537 271.194 270.473 272.918 270.965 274.788C271.03 275.082 270.692 275.463 270.534 275.8Z" fill="#F67B19"/>
<path d="M227.778 218.024C223.111 215.748 223.111 215.748 222.86 214.513C226.385 215.159 227.261 215.726 227.778 218.024Z" fill="#F67B19"/>
<path d="M263.276 259.042C263.52 259.078 263.929 259.042 263.994 259.15C264.668 260.356 265.322 261.577 265.882 262.841C266.004 263.121 265.702 263.559 265.587 263.961C265.236 263.86 264.704 263.867 264.546 263.623C263.627 262.266 263.52 261.749 263.276 259.042Z" fill="#F67B19"/>
<path d="M211.265 210.866C213.419 210.219 215.142 211.102 216.93 212.014C216.729 212.424 216.635 212.833 216.513 212.84C214.765 212.9 213.031 212.499 211.487 211.677C211.322 211.605 211.329 211.225 211.265 210.866Z" fill="#F67B19"/>
<path d="M233.371 221.233C236.014 221.47 236.961 221.951 237.967 223.646C238 223.769 238.004 223.898 237.978 224.023C237.952 224.148 237.896 224.265 237.816 224.364C237.665 224.522 237.234 224.665 237.098 224.572C235.834 223.617 234.405 222.777 233.371 221.233Z" fill="#F67B19"/>
<path d="M204.803 209.896C203.961 210.329 203.039 210.584 202.094 210.646C201.149 210.708 200.202 210.575 199.31 210.255C199.217 209.43 199.526 209.042 200.186 209.028C201.55 208.999 202.95 208.625 204.803 209.896Z" fill="#F67B19"/>
<path d="M253.475 242.565C251.594 241.56 250.775 240.037 250.101 237.869C252.57 239.025 253.238 240.009 253.475 242.565Z" fill="#F67B19"/>
<path d="M259.829 253.22C258.113 251.934 257.747 250.132 256.957 248.682C257.517 247.842 258.049 247.964 258.357 248.488C258.986 249.576 259.545 250.703 260.03 251.863C260.188 252.157 259.944 252.609 259.829 253.22Z" fill="#F67B19"/>
<path d="M243.445 229.828C243.215 229.706 242.885 229.627 242.791 229.44C242.698 229.253 242.921 228.988 243 228.758C243.23 228.894 243.531 228.988 243.646 229.189C243.761 229.39 243.524 229.605 243.445 229.828Z" fill="#F67B19"/>
<path d="M245.01 231.702L244.665 231.206L245.132 231.579L245.01 231.702Z" fill="#F67B19"/>
<path d="M245.951 232.412L246.295 232.886L245.821 232.542L245.951 232.412Z" fill="#F67B19"/>
<path d="M245.822 232.542L245.01 231.702L245.132 231.58L245.965 232.413L245.822 232.542Z" fill="#F67B19"/>
<path fill-rule="evenodd" clip-rule="evenodd" d="M193.156 145.171C193.794 143.995 194.433 142.818 195.074 141.645C196.05 140.115 197.02 138.586 198.025 136.999L203.905 136.999C204.048 136.952 204.192 136.91 204.335 136.867C204.589 136.791 204.842 136.715 205.09 136.619C205.288 136.569 205.474 136.478 205.634 136.352C205.794 136.225 205.925 136.066 206.019 135.884C206.113 135.703 206.167 135.504 206.178 135.3C206.188 135.096 206.155 134.892 206.081 134.702C205.506 133.291 204.859 131.91 204.142 130.566C202.715 127.834 201.271 125.11 199.827 122.385L199.824 122.379C198.805 120.459 197.788 118.538 196.776 116.616C196.488 116.07 196.165 115.542 195.842 115.014C195.085 113.776 194.328 112.539 194.026 111.08C193.932 110.616 193.876 110.146 193.819 109.675C193.793 109.461 193.768 109.247 193.739 109.034C191.823 108.238 189.746 107.911 187.679 108.079C185.807 108.231 183.944 108.496 182.081 108.76C181.229 108.881 180.376 109.002 179.522 109.113L178.603 109.924C178.591 110.049 178.584 110.173 178.584 110.295C178.583 110.162 178.59 110.026 178.603 109.888C174.64 111.159 171.646 113.823 169.018 116.903C164.876 121.785 161.946 127.428 159.132 133.172C155.939 138.753 152.742 144.33 149.539 149.901C149.723 150.025 149.928 150.136 150.132 150.245C150.565 150.479 150.995 150.71 151.22 151.072C154.428 156.322 157.306 161.768 159.835 167.377C160.027 168.046 160.112 168.742 160.087 169.438L166.742 167.808C166.777 168.518 166.811 169.181 166.844 169.822L166.849 169.916C166.876 170.454 166.903 170.978 166.929 171.506C167.589 172.146 168.325 171.877 168.99 171.633L169.052 171.611C169.104 171.592 169.155 171.573 169.205 171.556C169.986 171.296 170.76 171.02 171.535 170.743C172.707 170.326 173.878 169.908 175.071 169.545C176.442 169.129 177.821 169.079 178.711 170.565C178.821 170.391 178.932 170.217 179.042 170.043L179.042 170.042C179.325 169.596 179.607 169.152 179.885 168.703L179.889 168.705C180.761 167.181 181.635 165.659 182.509 164.137C184.628 160.446 186.746 156.757 188.835 153.046C190.298 150.437 191.728 147.803 193.156 145.171ZM176.93 164.629C176.077 163.134 175.237 161.633 174.425 160.116C175.237 161.643 176.077 163.139 176.93 164.629Z" fill="url(#paint1_linear_126_2620)"/>
<path d="M150.11 150.245C149.906 150.136 149.702 150.025 149.518 149.901C149.283 150.284 149.041 150.664 148.799 151.045C148.302 151.826 147.803 152.608 147.364 153.42C142.912 161.265 138.478 169.127 134.06 177.005C133.538 177.943 133.084 178.916 132.63 179.89C132.44 180.295 132.251 180.702 132.057 181.105L139.337 178.779L140.68 180.531L146.043 179.037C146.183 178.849 146.314 178.7 146.423 178.577C146.604 178.372 146.725 178.236 146.725 178.097C146.818 174.78 148.635 173.121 151.751 172.31C153.702 171.79 155.603 171.082 157.501 170.374L157.502 170.374C158.355 170.056 159.208 169.738 160.065 169.438C160.091 168.742 160.006 168.046 159.814 167.377C157.284 161.768 154.407 156.322 151.198 151.072C150.973 150.71 150.543 150.479 150.11 150.245Z" fill="url(#paint2_linear_126_2620)"/>
<path fill-rule="evenodd" clip-rule="evenodd" d="M203.905 137.021C204.048 136.974 204.192 136.931 204.335 136.888C204.589 136.812 204.843 136.736 205.09 136.64C205.295 136.593 205.488 136.5 205.654 136.37C205.819 136.239 205.954 136.074 206.049 135.885C206.143 135.697 206.195 135.49 206.201 135.279C206.206 135.068 206.165 134.859 206.081 134.666C205.506 133.255 204.859 131.874 204.142 130.53C201.983 126.396 199.784 122.25 197.605 118.144L196.776 116.58C196.488 116.034 196.165 115.506 195.842 114.978C195.085 113.74 194.328 112.503 194.026 111.044C193.932 110.58 193.876 110.11 193.819 109.64L193.819 109.639C193.793 109.425 193.768 109.211 193.739 108.998C196.682 109.299 199.339 110.491 201.96 111.733C203.696 112.559 205.393 113.467 207.09 114.375C208.079 114.905 209.069 115.435 210.066 115.948C210.768 116.309 211.493 116.63 212.216 116.95C212.498 117.075 212.78 117.199 213.06 117.326C213.06 117.452 213.077 117.574 213.094 117.698C213.106 117.786 213.118 117.875 213.124 117.965C213.124 117.968 213.124 117.97 213.124 117.972C213.651 118.094 214.159 118.29 214.632 118.554C216.889 120.276 219.42 121.494 221.951 122.713C223.728 123.568 225.505 124.424 227.19 125.454C230.065 127.213 232.973 128.794 235.886 130.377C237.111 131.043 238.336 131.71 239.561 132.39C239.815 132.496 240.08 132.575 240.35 132.627C241.154 133.104 241.959 133.577 242.764 134.05C244.683 135.179 246.6 136.307 248.492 137.48C249.343 138.025 250.143 138.662 250.932 139.288C251.182 139.487 251.431 139.685 251.68 139.878C250.636 139.829 249.591 139.775 248.547 139.722C246.72 139.628 244.892 139.535 243.064 139.462C240.503 139.366 237.942 139.29 235.382 139.213C234.101 139.175 232.821 139.136 231.541 139.096C226.808 138.346 222.012 138.072 217.224 138.277L212.413 137.473C212.415 137.473 212.417 137.473 212.418 137.473L204.02 137.373L203.905 137.021ZM213.407 137.436C214.076 137.425 214.746 137.437 215.423 137.45C216.888 137.477 218.38 137.504 219.937 137.295C218.398 137.495 216.914 137.471 215.457 137.446C214.768 137.435 214.086 137.424 213.407 137.436Z" fill="url(#paint3_linear_126_2620)"/>
<path d="M295.19 167.176C293.812 169.897 292.569 172.698 291.019 175.318C286.107 183.625 279.84 190.877 273.134 197.77L271.698 199.263C270.391 198.279 269.012 197.368 267.785 196.283C264.496 193.368 261.28 190.382 258.034 187.423C259.371 187.373 260.684 187.047 261.888 186.465C263.093 185.883 264.164 185.058 265.035 184.042C266.901 181.966 268.63 179.772 270.211 177.472C272.085 174.808 272.703 171.872 271.331 168.741L275.331 168.023L277.736 169.503C277.786 169.77 277.853 170.034 277.937 170.292C277.973 170.4 278.124 170.472 278.231 170.558C278.325 170.335 278.54 170.077 278.49 169.897C278.439 169.718 278.138 169.51 277.951 169.316C277.348 167.787 276.752 166.264 276.156 164.735L277.298 164.283C277.757 164.721 278.425 165.073 278.648 165.611C278.862 166.3 279.246 166.924 279.764 167.425C280.282 167.927 280.918 168.291 281.613 168.483L282.058 166.013C282.776 166.085 283.365 167.162 284.413 166.121C283.508 164.484 282.726 162.689 281.398 161.217C281.247 161.052 280.895 161.059 280.636 160.98C280.931 160.348 281.225 159.709 281.512 159.077C285.497 161.231 289.489 163.299 293.438 165.482C294.091 165.971 294.679 166.54 295.19 167.176Z" fill="#313132"/>
<path d="M295.19 167.176C294.672 166.544 294.076 165.98 293.417 165.496C289.468 163.342 285.476 161.188 281.491 159.092C282.159 156.349 284.133 154.339 285.504 151.998C285.635 151.955 285.759 151.892 285.871 151.811C288.577 148.746 292.074 148.035 295.922 148.423C296.339 148.444 296.756 148.444 297.172 148.423L301.164 150.684C299.85 154.798 298.579 158.934 297.179 163.026C296.603 164.45 295.938 165.836 295.19 167.176Z" fill="#FEB901"/>
<path d="M276.135 164.749C276.731 166.279 277.327 167.801 277.93 169.33L277.714 169.517L275.309 168.038L271.31 168.756L271.138 168.705C272.286 167.987 271.662 167.327 271.066 166.666L271.123 165.546C271.227 165.359 271.287 165.151 271.299 164.937C271.312 164.724 271.277 164.51 271.196 164.312C271.116 164.114 270.992 163.936 270.834 163.792C270.676 163.648 270.488 163.541 270.283 163.479C270.149 162.849 269.979 162.228 269.773 161.619C269.185 160.14 268.546 158.682 267.921 157.218L268.869 156.363C270.822 157.878 271.827 160.025 272.81 162.193C273.083 162.789 273.205 163.572 274.132 163.45V156.794L275.058 156.744C275.194 158.661 275.374 160.571 275.467 162.488C275.532 163.313 275.323 164.161 276.135 164.749Z" fill="#FCA808"/>
<path d="M262.68 160.233C262.565 159.841 262.472 159.443 262.4 159.042C262.177 157.074 262.644 156.091 264.209 155.452C264.849 155.238 265.511 155.101 266.183 155.042C267.469 154.87 267.555 153.929 267.619 152.946C271.159 151.589 272.904 151.933 274.376 154.425C274.703 155.17 274.944 155.951 275.094 156.751L274.175 156.801C273.566 155.767 272.844 154.803 272.021 153.929C270.513 152.63 268.998 153.456 268.797 155.559C268.792 155.829 268.816 156.099 268.869 156.363L267.921 157.218C267.275 156.988 266.6 156.5 265.982 156.593C265.173 156.654 264.41 156.997 263.828 157.562C263.204 158.28 263.785 159.171 264.353 159.795C265.473 161.023 266.65 162.193 267.806 163.385L267.088 164.103L262.68 160.233Z" fill="#F69422"/>
<path d="M282.037 166.056L281.627 168.497C280.932 168.305 280.296 167.941 279.778 167.44C279.26 166.938 278.876 166.314 278.662 165.625C278.439 165.087 277.772 164.735 277.312 164.297C277.736 163.342 278.281 162.538 279.466 162.595C279.883 164.082 279.933 165.848 282.065 166.042L282.037 166.056Z" fill="#FA990F"/>
<path d="M280.615 161.03C280.873 161.109 281.225 161.102 281.376 161.267C282.704 162.703 283.487 164.534 284.392 166.171C283.343 167.212 282.762 166.135 282.037 166.063L280.292 161.755C280.289 161.618 280.316 161.482 280.372 161.356C280.428 161.231 280.511 161.12 280.615 161.03Z" fill="#FA990F"/>
<path d="M280.313 161.748L282.058 166.056C279.904 165.862 279.904 164.096 279.459 162.61C279.739 162.308 280.026 162.028 280.313 161.748Z" fill="#F05D27"/>
<path d="M145.813 238.81C145.813 238.812 145.813 238.814 145.813 238.817C146.728 238.74 147.644 238.677 148.56 238.614C150.54 238.478 152.516 238.343 154.465 238.063C156.339 237.812 158.195 237.43 160.052 237.048C160.905 236.872 161.759 236.696 162.614 236.534C162.565 234.317 162.777 232.102 163.246 229.935C164.665 224.564 165.97 219.166 167.275 213.768C168.962 206.791 170.649 199.815 172.58 192.902C172.7 192.217 172.748 191.521 172.723 190.827L169.923 190.403L161.013 190.259L156.641 191.688C156.641 191.686 156.64 191.683 156.64 191.681L145.871 194.632L145.871 197.13C145.585 197.246 145.315 197.362 145.054 197.474C144.505 197.71 143.993 197.93 143.458 198.1C139.547 199.333 135.632 200.552 131.717 201.771L131.709 201.774C129.497 202.463 127.284 203.152 125.07 203.844C124.353 204.072 123.645 204.326 122.939 204.579L122.938 204.58C122.598 204.702 122.259 204.823 121.919 204.942C121.7 205.734 121.475 206.525 121.25 207.316L121.249 207.318C120.714 209.2 120.179 211.081 119.729 212.976C118.19 219.256 117.905 225.672 117.619 232.087L117.619 232.09C117.577 233.038 117.535 233.985 117.489 234.932L118.113 235.801L124.79 237.797C125.588 237.906 126.385 238.025 127.182 238.143C129.535 238.494 131.888 238.844 134.254 238.946C136.947 239.062 139.651 238.98 142.356 238.899C143.508 238.864 144.661 238.829 145.813 238.81Z" fill="url(#paint4_linear_126_2620)"/>
<path fill-rule="evenodd" clip-rule="evenodd" d="M162.636 236.562L181.978 233.109L181.978 233.108C183.573 233.025 185.168 232.928 186.763 232.831C190.46 232.606 194.158 232.381 197.86 232.341C205.356 232.24 212.571 233.899 219.565 236.548C219.635 236.575 219.706 236.601 219.778 236.628C219.867 236.662 219.957 236.695 220.047 236.728L220.063 236.734C221.591 237.303 223.126 237.874 224.253 239.169C225.453 239.856 226.614 240.611 227.728 241.43C232.56 245.393 236.179 250.376 239.424 255.646C243.306 261.982 246.583 268.67 249.21 275.621C251.027 280.323 252.657 285.098 254.236 289.88C254.681 291.251 255.414 291.653 256.699 291.467L264.18 288.408L282.776 281.041L285.562 279.663C285.679 279.817 285.79 279.941 285.883 280.046C286.042 280.225 286.151 280.347 286.151 280.46C285.892 284.402 287.027 288.078 288.226 291.754C288.542 292.719 288.797 293.717 289.052 294.715C289.167 295.165 289.282 295.615 289.403 296.062C289.95 296.686 290.532 297.278 291.148 297.835C291.647 298.154 292.179 298.419 292.735 298.625C292.891 300.002 293.048 301.407 293.252 303.239L293.345 304.074C293.583 303.799 293.798 303.578 293.979 303.391C294.317 303.044 294.54 302.814 294.587 302.567C294.875 300.933 295.113 299.293 295.352 297.651L295.352 297.65C295.452 296.96 295.553 296.271 295.657 295.581C295.982 295.109 296.307 294.635 296.631 294.162L296.636 294.155C297.328 293.146 298.02 292.136 298.723 291.136C300.187 289.054 301.444 286.879 301.817 284.315C301.978 283.342 301.867 282.344 301.496 281.43C301.125 280.516 300.508 279.723 299.713 279.139C298.055 277.796 296.396 277.868 294.687 279.038C294.564 279.129 294.386 279.137 294.171 279.147C294.062 279.152 293.944 279.158 293.819 279.175L292.218 278.062C291.746 276.463 291.314 274.915 290.893 273.404L290.893 273.402L290.892 273.4C290.225 271.004 289.582 268.699 288.843 266.423C283.135 248.869 275.388 232.348 263.828 217.801C263.597 217.45 263.395 217.081 263.225 216.696C262.843 216.306 262.448 215.926 262.048 215.539L262.044 215.536L262.044 215.535L262.043 215.534C261.632 215.138 261.215 214.736 260.799 214.312C252.499 204.803 241.959 197.513 230.133 193.103C228.943 192.651 227.735 192.252 226.526 191.853C225.89 191.643 225.253 191.432 224.619 191.214L196.158 191.286C194.981 191.291 193.807 191.321 192.634 191.351C192.168 191.362 191.702 191.374 191.236 191.384L187.033 190.855L172.745 190.855C172.77 191.55 172.722 192.246 172.601 192.93C170.607 200.027 168.877 207.188 167.147 214.35C165.888 219.563 164.629 224.776 163.267 229.964C162.798 232.131 162.586 234.346 162.636 236.562ZM245.111 231.579L245.943 232.419C246.065 232.57 246.18 232.728 246.295 232.886L245.821 232.542L244.996 231.701L244.644 231.206L245.111 231.579ZM291.268 291.187C291.19 291.683 291.11 292.196 291.026 292.73L291.026 292.709C289.218 289.451 288.188 285.819 288.017 282.097C287.96 280.553 288.678 279.67 289.733 279.67C291.643 279.67 293.086 281.085 292.813 282.786C292.733 283.406 292.578 284.013 292.423 284.619C292.302 285.093 292.181 285.567 292.095 286.046C291.818 287.674 291.562 289.306 291.269 291.18L291.268 291.186L291.268 291.187ZM294.8 292.923L294.616 293.147L295.398 282.549C295.418 282.273 295.464 281.999 295.535 281.731C295.598 281.426 295.74 281.143 295.947 280.909C296.153 280.676 296.417 280.5 296.712 280.399C297.006 280.299 297.322 280.277 297.628 280.335C297.934 280.393 298.22 280.53 298.457 280.733C299.008 281.332 299.435 282.035 299.713 282.801C299.869 283.336 299.882 283.903 299.749 284.445C299.092 287.724 297.093 290.146 294.8 292.923ZM270.712 275.505C270.647 275.612 270.583 275.719 270.534 275.822L270.534 275.8C270.249 275.232 269.873 274.704 269.5 274.181C268.569 272.873 267.657 271.594 268.237 269.783C269.537 271.215 270.473 272.939 270.965 274.809C271.01 275.014 270.861 275.26 270.712 275.505ZM222.86 214.513C226.378 215.152 227.254 215.726 227.778 218.024C224.201 216.277 223.37 215.871 223.06 215.218C222.966 215.02 222.92 214.8 222.86 214.513ZM264.546 263.623C263.62 262.259 263.512 261.749 263.268 259.042L263.276 259.042C263.309 259.047 263.347 259.051 263.386 259.053C263.44 259.056 263.498 259.057 263.556 259.058C263.754 259.061 263.95 259.064 263.994 259.15C264.668 260.356 265.322 261.577 265.882 262.841C265.967 263.037 265.845 263.325 265.724 263.608C265.673 263.729 265.622 263.849 265.587 263.961C265.536 263.945 265.479 263.931 265.418 263.919C265.358 263.908 265.295 263.897 265.23 263.886C264.951 263.84 264.654 263.79 264.546 263.623ZM211.341 211.226C211.321 211.113 211.299 210.989 211.265 210.866C213.339 210.229 215.057 211.078 216.873 211.976L216.951 212.014C216.878 212.164 216.819 212.314 216.767 212.445C216.678 212.672 216.612 212.84 216.535 212.84C214.786 212.9 213.053 212.499 211.509 211.677C211.41 211.616 211.379 211.44 211.341 211.226ZM233.41 221.237C234.234 222.478 235.31 223.254 236.356 224.009L236.356 224.01C236.621 224.201 236.884 224.391 237.141 224.586C237.27 224.68 237.701 224.536 237.859 224.378C237.939 224.279 237.995 224.162 238.021 224.037C238.047 223.912 238.043 223.783 238.01 223.66C236.938 221.967 236.023 221.475 233.41 221.237ZM200.883 208.993C202.031 208.919 203.259 208.841 204.803 209.896C203.961 210.329 203.039 210.584 202.094 210.646C201.149 210.708 200.202 210.575 199.31 210.255C199.217 209.43 199.526 209.028 200.186 209.028C200.416 209.023 200.648 209.008 200.883 208.993ZM253.468 242.561C253.23 240.015 252.562 239.024 250.093 237.869C250.753 240.006 251.592 241.555 253.468 242.561ZM259.823 253.215C259.863 253.005 259.918 252.813 259.968 252.64C260.062 252.314 260.136 252.055 260.052 251.863C259.567 250.703 259.008 249.576 258.379 248.488C258.07 247.957 257.539 247.842 256.979 248.682C257.179 249.059 257.352 249.461 257.528 249.871C258.028 251.034 258.558 252.265 259.823 253.215ZM243.439 229.824C243.463 229.757 243.497 229.684 243.532 229.611C243.61 229.444 243.688 229.278 243.639 229.189C243.584 229.089 243.368 228.969 243.167 228.857C243.106 228.823 243.046 228.79 242.992 228.758C242.968 228.828 242.933 228.904 242.897 228.98C242.816 229.154 242.734 229.33 242.784 229.44C242.835 229.552 243.032 229.639 243.225 229.724C243.3 229.758 243.374 229.79 243.439 229.824Z" fill="url(#paint5_linear_126_2620)"/>
<path d="M254.897 173.523C253.848 176.357 252.803 179.198 251.759 182.046L245.951 178.642C246.331 177.745 246.669 176.819 247.099 175.971C251.067 168.595 255.055 161.231 259.061 153.879C259.456 153.161 259.944 152.443 260.389 151.725L261.222 152.766C260.784 154.59 260.346 156.406 259.901 158.23L256.498 168.447C255.952 170.134 255.421 171.8 254.897 173.523Z" fill="#FDB204"/>
<path fill-rule="evenodd" clip-rule="evenodd" d="M49.1005 167.743L49.1005 167.676C49.7899 167.912 49.7979 168.431 49.8057 168.947C49.8105 169.258 49.8152 169.567 49.9692 169.811C49.9199 170.361 49.9685 170.915 50.1128 171.448C52.5923 176.469 55.1076 181.469 57.6589 186.447C58.0665 187.006 58.5497 187.507 59.0948 187.933C59.7697 190.618 61.3636 192.693 63.3094 194.553C64.7685 194.596 65.6527 195.545 66.5257 196.481C66.6665 196.632 66.807 196.783 66.9495 196.929C68.2769 198.473 69.9329 199.699 71.7959 200.519C72.083 201.086 72.3628 201.653 72.6426 202.22L72.6432 202.221C72.8557 202.331 73.0708 202.435 73.2855 202.539C73.7018 202.741 74.1168 202.942 74.51 203.183C78.8084 205.791 83.6131 207.453 88.604 208.058C89.1494 208.065 89.6982 208.063 90.2485 208.062C91.4876 208.058 92.7344 208.055 93.9674 208.144C94.7382 208.306 95.4843 208.569 96.1859 208.927L109.619 207.218C109.867 207.185 110.114 207.155 110.36 207.126L110.362 207.126C110.917 207.059 111.471 206.992 112.018 206.888C114.586 206.396 117.151 205.888 119.718 205.378L119.721 205.378C120.454 205.232 121.186 205.087 121.919 204.942C122.165 204.855 122.412 204.766 122.66 204.677C123.455 204.392 124.261 204.102 125.071 203.851C128.021 202.925 130.972 202.005 133.922 201.086L133.931 201.084C137.108 200.094 140.284 199.104 143.458 198.107C143.993 197.937 144.504 197.717 145.053 197.482L145.054 197.482C145.315 197.369 145.586 197.254 145.871 197.138L145.871 194.639C144.752 192.892 144.068 190.903 143.875 188.838C142.379 186.251 141.307 183.442 140.701 180.516L139.358 178.764L132.078 181.091C131.533 181.285 130.988 181.483 130.443 181.682L130.442 181.683C129.416 182.057 128.39 182.431 127.354 182.778C126.053 183.213 124.743 183.623 123.433 184.033L123.427 184.035C122.751 184.247 122.076 184.459 121.402 184.673L117.23 184.602C116.699 185.736 115.722 186.016 114.545 186.26C110.667 187.069 106.756 187.07 102.842 187.071C102.03 187.071 101.219 187.071 100.408 187.079C100.485 188.472 100.079 189.849 99.2589 190.977C98.4645 192.243 97.6695 193.504 96.8751 194.764L96.8747 194.765L96.874 194.766C96.4976 195.363 96.1214 195.96 95.7454 196.557C96.9094 194.698 98.073 192.84 99.2302 190.977C100.051 189.849 100.456 188.472 100.379 187.079C97.8981 186.753 95.4671 186.121 93.1417 185.198C90.7605 184.252 88.6181 182.935 86.4713 181.616C85.8011 181.204 85.1304 180.792 84.4519 180.391C84.4503 180.373 84.4486 180.355 84.4468 180.337C83.8592 180.001 83.3224 179.582 82.8529 179.095C82.0541 177.953 81.1791 176.865 80.3043 175.778C78.6158 173.679 76.9277 171.581 75.7879 169.093C75.7178 168.938 75.5534 168.825 75.3897 168.712C75.3187 168.663 75.2478 168.614 75.1848 168.562C74.9448 168.688 74.6752 168.788 74.4077 168.887C73.8832 169.081 73.3665 169.273 73.0955 169.653C71.9032 171.318 70.8166 173.062 69.7321 174.803C69.4323 175.284 69.1324 175.765 68.8307 176.244C67.1134 178.908 65.4184 181.562 63.7652 184.243C65.115 182.053 66.4905 179.882 67.8677 177.708L67.8693 177.706C68.1778 177.219 68.4864 176.732 68.7948 176.244C69.0641 175.817 69.3318 175.389 69.5994 174.961C70.7161 173.175 71.8318 171.391 73.0596 169.653C73.3416 169.257 73.8861 169.056 74.4323 168.854C74.6788 168.763 74.9257 168.671 75.149 168.562C75.0566 168.289 74.9694 168.015 74.8823 167.741C74.6783 167.1 74.4751 166.462 74.2084 165.848C73.717 164.721 73.2308 163.592 72.7447 162.463L72.7444 162.462C71.2705 159.04 69.797 155.618 68.1773 152.249C67.1278 150.316 65.9724 148.441 64.7167 146.635C64.1351 145.694 64.1064 144.847 65.1187 144.129C64.8244 143.554 64.5228 142.98 64.2212 142.413C61.1751 143.305 58.563 145.039 55.9649 146.765C55.446 147.109 54.9276 147.453 54.4064 147.791C52.1447 149.248 50.7734 151.546 49.8687 154.116C48.8927 156.909 48.9642 159.76 49.0361 162.625C49.0409 162.816 49.0457 163.007 49.0502 163.199C49.0997 164.691 49.1005 166.183 49.1005 167.676C49.0818 167.669 49.0627 167.663 49.043 167.657L49.1005 167.743ZM88.604 208.056C88.6049 206.89 89.2924 206.16 89.9807 205.43C90.3006 205.09 90.6207 204.75 90.872 204.366C90.6203 204.75 90.2973 205.09 89.9743 205.43C89.2797 206.16 88.5858 206.89 88.604 208.056ZM110.888 203.805C110.704 204.019 110.538 204.24 110.416 204.483C110.538 204.238 110.704 204.017 110.888 203.805ZM117.187 194.215L117.186 194.216C115.453 196.99 113.719 199.766 111.967 202.53C113.719 199.765 115.453 196.989 117.187 194.215L117.189 194.212L117.19 194.21C118.184 192.619 119.177 191.029 120.174 189.441C119.178 191.028 118.184 192.618 117.191 194.209L117.19 194.21L117.189 194.212L117.187 194.215Z" fill="#AFDAF2"/>
<path d="M203.905 137.021C203.932 137.14 203.966 137.257 204.006 137.373L202.283 137.488C200.847 137.114 199.504 137.2 198.693 138.715C196.927 142.004 195.17 145.297 193.423 148.595C192.331 150.361 191.175 152.099 190.156 153.908C185.992 161.289 181.844 168.689 177.713 176.108C177.44 176.108 177.168 176.18 176.902 176.223L176.751 174.241V174.148L178.69 170.558C179.085 169.933 179.479 169.316 179.867 168.691C182.854 163.471 185.862 158.273 188.813 153.032C190.967 149.255 192.978 145.428 195.053 141.63C196.029 140.108 196.998 138.579 198.004 137.014L203.905 137.021Z" fill="#2A87AA"/>
<path d="M176.751 174.227L176.902 176.209C176.849 176.331 176.821 176.463 176.821 176.596C176.821 176.73 176.849 176.862 176.902 176.984V176.948C173.98 178.068 173.98 178.068 174.461 180.538C174.414 180.742 174.337 180.939 174.231 181.12C172.034 181.277 169.736 181.084 167.654 181.665C162.19 183.173 156.841 185.061 151.413 186.691C148.908 187.452 146.531 188.694 143.846 188.802C142.35 186.216 141.279 183.406 140.672 180.481L146.036 178.987C146.409 178.485 146.711 178.269 146.718 178.047C146.811 174.729 148.628 173.071 151.744 172.26C154.573 171.542 157.294 170.371 160.058 169.388L166.714 167.758C166.778 169.1 166.843 170.271 166.9 171.455C167.618 172.173 168.423 171.757 169.176 171.506C171.136 170.852 173.061 170.07 175.042 169.495C176.414 169.079 177.792 169.029 178.683 170.515L176.744 174.105L176.026 173.99L176.751 174.227Z" fill="#F1CDCD"/>
<path d="M143.875 188.838C146.56 188.73 148.936 187.488 151.442 186.727C156.87 185.076 162.212 183.187 167.683 181.701C169.765 181.12 172.063 181.313 174.26 181.163C174.33 181.363 174.39 181.566 174.439 181.773C172.666 182.369 172.666 182.39 173.535 183.625C173.554 184.207 173.391 184.78 173.07 185.266C172.748 185.751 172.283 186.123 171.74 186.332C169.152 187.557 166.461 188.552 163.698 189.305C162.786 189.592 161.903 189.972 161.013 190.31L156.619 191.746L145.849 194.689C144.731 192.926 144.053 190.919 143.875 188.838Z" fill="#F1C1C0"/>
<path fill-rule="evenodd" clip-rule="evenodd" d="M202.283 137.487L204.006 137.373L212.413 137.473L217.224 138.277C222.011 138.072 226.808 138.346 231.541 139.096C232.821 139.136 234.101 139.175 235.381 139.213C237.942 139.29 240.503 139.366 243.064 139.462C244.892 139.535 246.719 139.628 248.547 139.722C249.591 139.775 250.636 139.829 251.68 139.878C252.511 139.959 253.342 140.04 254.173 140.122C256.667 140.365 259.16 140.609 261.653 140.84C262.516 140.921 263.381 140.987 264.246 141.054L264.251 141.054C264.774 141.094 265.296 141.135 265.817 141.178C265.817 141.458 265.817 141.731 265.867 142.011C264.554 143.132 263.938 144.671 263.324 146.204L263.232 146.434L260.36 151.754C260.217 151.986 260.068 152.213 259.92 152.439C259.61 152.914 259.299 153.388 259.032 153.908C255.035 161.26 251.048 168.624 247.071 176C246.755 176.582 246.511 177.2 246.266 177.821C246.153 178.105 246.041 178.39 245.922 178.671C244.371 181.409 242.818 184.142 241.262 186.87C241.13 187.104 240.999 187.339 240.869 187.575C240.465 188.299 240.061 189.027 239.611 189.742C239.384 190.086 239.048 190.344 238.658 190.474C238.272 190.602 237.855 190.599 237.472 190.466L237.471 190.468L224.619 190.841L221.431 190.568C221.431 185.442 221.431 180.315 221.51 175.189C221.51 174.144 221.623 173.099 221.736 172.054C221.748 171.944 221.76 171.834 221.772 171.724C221.781 171.644 221.789 171.564 221.797 171.484C221.907 170.491 222.035 169.501 222.163 168.51L222.164 168.504L222.165 168.499C222.23 167.996 222.295 167.493 222.357 166.989C223.239 166.314 224.064 165.57 224.827 164.764C225.332 164.174 225.71 163.488 225.94 162.748C226.169 162.007 226.245 161.227 226.163 160.456C226.083 159.615 225.758 158.817 225.228 158.159C224.699 157.502 223.987 157.015 223.183 156.758C222.1 156.928 221.038 157.215 220.017 157.613C218.873 158.139 217.916 159.002 217.275 160.086C216.634 161.17 216.338 162.423 216.427 163.68C216.477 166.171 218.215 167.715 220.735 167.471C221.277 167.359 221.805 167.186 222.307 166.954C222.244 167.459 222.179 167.963 222.114 168.467L222.113 168.473C221.985 169.464 221.857 170.455 221.747 171.448C221.734 171.572 221.721 171.695 221.708 171.819C221.591 172.93 221.473 174.042 221.46 175.153C221.422 178.998 221.409 182.844 221.395 186.689C221.391 187.97 221.386 189.251 221.381 190.532L206.303 190.482C206.308 190.468 206.312 190.453 206.316 190.439L193.788 190.439C193.783 190.453 193.779 190.468 193.774 190.482L187.068 190.87L172.781 190.87L169.98 190.446L171.775 186.31C172.319 186.102 172.784 185.729 173.105 185.244C173.427 184.759 173.59 184.185 173.57 183.604L174.475 181.751C174.426 181.545 174.366 181.341 174.296 181.141C174.401 180.957 174.478 180.759 174.525 180.552C176.363 180.05 176.729 178.542 176.966 176.962L176.966 176.998L177.778 176.108C181.918 168.713 186.068 161.317 190.228 153.922C191.045 152.472 191.935 151.068 192.83 149.659C193.044 149.322 193.258 148.984 193.471 148.646C193.455 148.619 193.439 148.593 193.423 148.566C195.175 145.268 196.931 141.975 198.693 138.686C199.504 137.2 200.818 137.114 202.283 137.487ZM207.793 143.445C207.811 143.395 207.829 143.345 207.845 143.294C207.83 143.34 207.813 143.387 207.797 143.432C207.796 143.436 207.795 143.441 207.793 143.445ZM222.132 140.446C222.093 140.164 222.053 139.874 222.018 139.573C222.054 139.877 222.095 140.17 222.136 140.454L222.137 140.46C222.232 141.134 222.321 141.764 222.322 142.397C222.312 141.76 222.225 141.126 222.132 140.448L222.132 140.446Z" fill="url(#paint6_linear_126_2620)"/>
<path d="M261.222 152.795L260.389 151.754L263.261 146.434C263.031 148.673 262.337 150.839 261.222 152.795Z" fill="#F69422"/>
<path d="M277.93 169.33C278.116 169.524 278.397 169.689 278.468 169.912C278.54 170.134 278.303 170.35 278.21 170.572C278.102 170.486 277.951 170.415 277.915 170.307C277.832 170.048 277.764 169.784 277.714 169.517L277.93 169.33Z" fill="#FCA808"/>
<path d="M267.856 163.4C268.35 163.634 268.868 163.815 269.4 163.938C269.68 163.981 270.003 163.651 270.305 163.486C270.226 163.787 269.982 164.204 270.096 164.376C270.403 164.805 270.754 165.2 271.145 165.554C271.145 165.927 271.109 166.272 271.087 166.674L267.871 165.31H267.806L267.174 164.175L267.856 163.4Z" fill="#F69422"/>
<path d="M271.123 165.532C270.733 165.179 270.381 164.784 270.075 164.355C269.96 164.168 270.204 163.766 270.283 163.464C270.488 163.526 270.676 163.633 270.834 163.778C270.992 163.922 271.116 164.1 271.197 164.298C271.277 164.496 271.312 164.71 271.3 164.923C271.287 165.137 271.227 165.345 271.123 165.532Z" fill="#065274"/>
<path d="M171.776 186.311L169.923 190.468L161.013 190.324C161.903 189.987 162.786 189.606 163.698 189.319C166.474 188.557 169.177 187.55 171.776 186.311Z" fill="#1D7EA2"/>
<path d="M222.358 166.954C221.855 167.186 221.327 167.36 220.785 167.471C218.229 167.715 216.477 166.171 216.477 163.68C216.388 162.423 216.684 161.17 217.325 160.086C217.967 159.002 218.923 158.139 220.067 157.613C221.089 157.215 222.15 156.928 223.234 156.758C224.038 157.015 224.749 157.502 225.279 158.159C225.809 158.817 226.133 159.615 226.213 160.456C226.296 161.227 226.22 162.007 225.99 162.748C225.761 163.489 225.382 164.175 224.878 164.764C224.097 165.56 223.255 166.292 222.358 166.954Z" fill="white"/>
<path fill-rule="evenodd" clip-rule="evenodd" d="M267.153 164.132C267.36 164.511 267.575 164.89 267.789 165.262L267.813 165.266L267.871 165.266L269.393 167.7C268.509 168.107 267.625 168.513 266.741 168.919L266.731 168.924L266.726 168.927C264.231 170.073 261.735 171.219 259.248 172.389C259.098 172.46 258.948 172.532 258.799 172.605C257.576 173.199 256.36 173.79 254.94 173.502C255.42 171.801 255.951 170.137 256.496 168.451L256.476 168.447L259.901 158.259L262.68 160.226L267.153 164.132ZM262.351 166.598C263.366 166.099 264.37 165.604 265.434 165.353C264.408 165.599 263.432 166.078 262.397 166.586L262.306 166.63C261.943 166.809 261.584 167.005 261.224 167.201C259.947 167.899 258.661 168.601 257.136 168.524C258.671 168.59 259.994 167.866 261.254 167.176C261.601 166.986 261.944 166.798 262.285 166.631L262.351 166.598Z" fill="#AFDAF2"/>
<path d="M270.19 177.472C272.064 174.808 272.681 171.872 271.31 168.741L271.116 168.691L269.35 167.722C268.463 168.131 267.575 168.538 266.688 168.946C264.191 170.093 261.694 171.24 259.205 172.41C259.088 172.466 258.972 172.523 258.856 172.58C257.617 173.185 256.374 173.792 254.897 173.523C253.848 176.362 252.803 179.202 251.759 182.046L258.013 187.423C259.35 187.373 260.662 187.047 261.867 186.465C263.072 185.883 264.143 185.058 265.013 184.042C266.879 181.966 268.608 179.772 270.19 177.472Z" fill="#AFDAF2"/>
<path d="M176.751 174.227L176.033 174.019L176.751 174.133V174.227Z" fill="#68AECE"/>
<path d="M177.713 176.108L176.902 176.998C176.849 176.876 176.821 176.744 176.821 176.611C176.821 176.477 176.849 176.345 176.902 176.223C177.168 176.165 177.441 176.108 177.713 176.108Z" fill="#68AECE"/>
<path d="M176.931 176.948C176.694 178.542 176.328 180.05 174.49 180.539C174.008 178.068 174.008 178.068 176.931 176.948Z" fill="#68AECE"/>
<path d="M174.44 181.751L173.535 183.604C172.666 182.369 172.666 182.347 174.44 181.751Z" fill="#68AECE"/>
<path d="M73.2757 126.548C73.4167 126.22 73.8959 125.616 74.6839 125.822M71.1149 126.764C70.6349 126.495 69.4539 126.175 68.57 127.049M72.7451 128.692C73.8019 130.034 74.9163 131.315 72.9537 131.178M73.4759 133.914C72.6439 135.089 70.8371 135.156 69.919 133.104M64.3604 129.058C64.1632 128.757 63.6567 128.281 63.2088 128.786C62.7608 129.291 63.4778 130.171 63.8923 130.548" stroke="black" stroke-width="0.430791" stroke-linecap="round"/>
<circle cx="70.2775" cy="128.404" r="0.718163" transform="rotate(3.97806 70.2775 128.404)" fill="#010101"/>
<circle cx="74.529" cy="127.805" r="0.718163" transform="rotate(3.97806 74.529 127.805)" fill="#010101"/>
</g>
<path fill-rule="evenodd" clip-rule="evenodd" d="M11.0894 141.991C9.68634 142.692 8.42836 143.604 7.69213 144.453C7.25015 144.963 7.17461 145.133 7.23867 145.475C7.32612 145.941 7.66714 146.982 8.04486 147.937L8.39686 148.826L11.6546 147.537L14.9123 146.248L15.019 146.517L15.1258 146.787L10.2707 148.743C7.01994 150.052 5.3394 150.748 5.18492 150.849C3.94551 151.657 3.40482 153.109 3.64853 154.975C3.87789 156.731 4.84485 158.567 6.15478 159.736C7.05161 160.535 8.28897 161.076 9.38711 161.148C10.0609 161.193 10.9614 161.066 11.511 160.849C11.7622 160.75 11.7582 160.803 11.5687 160.078C11.4031 159.445 11.1553 158.277 11.077 157.76C10.9248 156.756 10.9583 156.198 11.2084 155.571C11.4938 154.856 11.9836 154.337 12.8615 153.818C13.285 153.567 13.5245 153.468 15.1303 152.875C18.1916 151.744 18.7793 151.474 19.5108 150.862C20.0395 150.419 20.1835 150.111 20.2556 149.271C20.3646 148 19.9622 146.201 19.1356 144.265C18.3908 142.521 17.6897 141.53 16.9169 141.13C16.2135 140.765 15.0316 140.735 13.6666 141.045C13.0729 141.18 11.7115 141.68 11.0894 141.991ZM10.0594 144.184C10.6232 144.228 11.0556 144.554 11.2705 145.097C11.4853 145.64 11.3932 146.173 11.0124 146.591C10.4643 147.193 9.57875 147.244 8.95901 146.71C8.66159 146.454 8.43823 145.909 8.47681 145.534C8.5637 144.691 9.23419 144.119 10.0594 144.184ZM20.5675 145.198C20.5964 145.312 20.7019 145.709 20.8021 146.081C21.0466 146.989 21.2495 147.991 21.3027 148.553C21.4451 150.057 20.8863 151.061 19.4288 151.919C19.0039 152.169 18.7612 152.27 17.2028 152.845C14.8219 153.722 14.0243 154.05 13.5093 154.365C12.4373 155.019 12.1386 155.442 12.0597 156.417C11.96 157.649 12.271 159.196 12.9792 160.99C13.844 163.18 14.6351 164.291 15.6025 164.672C16.7153 165.11 18.2711 164.935 20.2349 164.151C21.8495 163.506 23.1135 162.734 24.1703 161.747C24.5523 161.391 25.0697 160.739 25.1008 160.574C25.1128 160.511 25.0906 160.309 25.0515 160.126C24.9562 159.68 24.2872 157.773 24.0589 157.297L23.8764 156.917L20.6255 158.203L17.3746 159.49L17.2679 159.221L17.1612 158.951L22.1975 156.922C27.0995 154.948 27.242 154.887 27.5424 154.661C28.6433 153.83 29.0899 152.28 28.775 150.381C28.6929 149.886 28.6296 149.676 28.3278 148.901C28.0295 148.135 27.9292 147.926 27.6667 147.521C26.5291 145.765 24.9608 144.718 23.2364 144.562C22.4941 144.495 21.4016 144.641 20.7668 144.892L20.515 144.992L20.5675 145.198ZM22.2051 158.516C23.7042 158.66 23.9854 160.748 22.5799 161.298C21.7805 161.611 20.9383 161.204 20.6785 160.38C20.3612 159.373 21.1464 158.414 22.2051 158.516Z" fill="#A93CAC"/>
<path d="M295.359 6.06192L295.242 5.80923C295.242 5.80923 295.242 5.80923 295.242 5.80922C295.028 5.34455 294.835 4.8488 294.784 4.63841L294.784 4.63841C294.769 4.57969 294.772 4.5595 294.782 4.53256C294.799 4.48796 294.841 4.42126 294.946 4.28598C295.268 3.86879 295.848 3.39432 296.514 3.01346C296.804 2.84779 297.455 2.56737 297.73 2.48843L297.675 2.29618L297.73 2.48843C298.389 2.29949 298.923 2.29757 299.218 2.43033C299.545 2.57706 299.896 2.99182 300.316 3.84017C300.776 4.77133 301.011 5.6233 300.993 6.21344C300.993 6.21344 300.993 6.21344 300.993 6.21344M295.359 6.06192L300.993 6.21344M295.359 6.06192L296.767 5.41143L298.358 4.6771L298.54 4.59326L298.623 4.77484L298.684 4.9065L298.745 5.03814L298.828 5.21863L298.648 5.30305L296.279 6.41444L296.194 6.23337L296.279 6.41444C295.486 6.78643 294.885 7.07067 294.473 7.26862C294.268 7.36765 294.11 7.44471 293.999 7.50021C293.944 7.52801 293.901 7.5499 293.871 7.56617C293.85 7.57756 293.838 7.58408 293.834 7.58678C293.831 7.58846 293.83 7.58866 293.832 7.58764C293.316 7.96688 293.094 8.61817 293.258 9.49175C293.412 10.3153 293.921 11.1628 294.57 11.6793C295.008 12.0286 295.598 12.2462 296.1 12.2513L296.098 12.4513L296.1 12.2513C296.393 12.2542 296.777 12.1807 297.019 12.0812C297.011 12.0536 297 12.0209 296.987 11.9808C296.981 11.9615 296.974 11.9405 296.967 11.9175C296.865 11.6009 296.707 11.0178 296.652 10.7538L296.652 10.7538C296.544 10.238 296.539 9.919 296.662 9.5527L296.662 9.55269C296.803 9.13409 297.069 8.82886 297.517 8.52877C297.74 8.37993 297.875 8.3164 298.655 7.97769C300.161 7.32433 300.411 7.18606 300.729 6.88828C300.845 6.77972 300.9 6.70491 300.934 6.62183C300.969 6.53423 300.987 6.41866 300.993 6.21344M295.359 6.06192L300.993 6.21344M301.696 5.83202C301.809 6.5789 301.558 7.09553 300.854 7.56447C300.649 7.70115 300.531 7.75828 299.769 8.08838C298.605 8.59272 298.215 8.77878 297.967 8.95L303.727 11.7165C303.727 11.7164 303.727 11.7162 303.727 11.7157M301.696 5.83202L301.894 5.80213M301.696 5.83202L301.894 5.80212C301.894 5.80213 301.894 5.80213 301.894 5.80213M301.696 5.83202C301.654 5.55277 301.525 5.05822 301.378 4.6117L303.315 10.1206C303.443 10.3518 303.83 11.2849 303.89 11.5051M301.894 5.80213C301.955 6.20518 301.92 6.56393 301.761 6.88989C301.604 7.21354 301.335 7.48438 300.965 7.73091L300.965 7.73092C300.742 7.87946 300.606 7.94362 299.848 8.2719C298.677 8.77944 298.309 8.95714 298.081 9.11466L298.081 9.11467C297.827 9.28948 297.692 9.41441 297.614 9.53881C297.54 9.65691 297.506 9.79363 297.5 10.02C297.486 10.5947 297.671 11.3262 298.068 12.1883C298.562 13.26 298.958 13.7139 299.362 13.8475C299.855 14.0108 300.568 13.9068 301.512 13.467C302.283 13.1086 302.87 12.7015 303.35 12.2007C303.432 12.1156 303.531 11.9917 303.611 11.8783C303.651 11.8219 303.684 11.771 303.707 11.7314C303.715 11.7174 303.721 11.706 303.725 11.6972M301.894 5.80213C301.849 5.50687 301.716 5.00022 301.567 4.54904L301.567 4.54903C301.522 4.41278 301.476 4.27062 301.448 4.18438C301.733 4.0638 302.214 3.97426 302.544 3.9856C303.335 4.01285 304.094 4.45084 304.683 5.25744M303.725 11.6972C303.726 11.702 303.727 11.7061 303.727 11.7096C303.727 11.7127 303.727 11.7147 303.727 11.7157M303.725 11.6972C303.725 11.6899 303.723 11.6812 303.722 11.6711C303.716 11.6375 303.707 11.5965 303.697 11.5576M303.725 11.6972C303.727 11.6935 303.729 11.6902 303.73 11.6874C303.732 11.6828 303.733 11.6806 303.733 11.6805C303.733 11.6803 303.73 11.6881 303.728 11.7014C303.727 11.7087 303.727 11.7138 303.727 11.7157M303.727 11.7157L303.697 11.5576M303.697 11.5576L303.89 11.5051M303.697 11.5576L297.887 12.272C298.379 13.3417 298.805 13.8741 299.299 14.0374C299.867 14.2252 300.638 14.0946 301.597 13.6484C302.385 13.2815 302.995 12.861 303.495 12.3391C303.675 12.1505 303.916 11.8104 303.927 11.7276C303.931 11.6956 303.914 11.5954 303.89 11.5051M303.697 11.5576C303.697 11.5576 303.697 11.5576 303.697 11.5576L303.89 11.5051M303.697 11.5576C303.671 11.4624 303.565 11.1868 303.443 10.8936C303.322 10.602 303.197 10.3213 303.14 10.217C303.14 10.217 303.14 10.217 303.14 10.217L303.128 10.1954L302.283 10.5857C302.331 10.5804 302.381 10.5786 302.432 10.5807C303.4 10.6196 303.644 11.9419 302.771 12.3409C302.274 12.5681 301.719 12.3356 301.526 11.8242C301.385 11.4507 301.493 11.0738 301.745 10.8342L301.71 10.8501L300.123 11.5829L299.942 11.6667L299.858 11.4851L299.797 11.3535L299.736 11.2218L299.653 11.0413L299.833 10.9569L302.291 9.80411C303.488 9.24258 304.101 8.95456 304.434 8.79158C304.763 8.62996 304.8 8.59907 304.85 8.55608L304.852 8.55483L304.852 8.55482C305.3 8.17608 305.483 7.47972 305.282 6.58041C305.232 6.35492 305.201 6.26625 305.031 5.89323C304.863 5.52417 304.814 5.43642 304.683 5.25744M304.683 5.25744L304.845 5.13952L304.683 5.25745C304.683 5.25745 304.683 5.25744 304.683 5.25744ZM295.966 3.76342L295.966 3.76342C295.44 3.75159 295.034 4.14484 295.009 4.67226L295.009 4.67227C295.003 4.80973 295.045 4.95667 295.104 5.08011C295.163 5.20413 295.251 5.32915 295.361 5.4136C295.77 5.72843 296.334 5.6653 296.66 5.26501L296.66 5.265C296.888 4.98407 296.926 4.63312 296.773 4.30164C296.62 3.97015 296.328 3.77157 295.966 3.76342Z" stroke="#A93CAC" stroke-width="0.4"/>
<path fill-rule="evenodd" clip-rule="evenodd" d="M122.658 34.939C121.835 35.585 121.136 36.3492 120.769 37.0025C120.549 37.3948 120.522 37.516 120.61 37.7304C120.73 38.0231 121.092 38.6576 121.467 39.2304L121.816 39.7641L123.77 38.4852L125.725 37.2063L125.831 37.3681L125.937 37.5299L123.028 39.4581C121.081 40.7491 120.077 41.4289 119.989 41.5154C119.288 42.2093 119.13 43.2299 119.539 44.4157C119.925 45.5317 120.802 46.6017 121.814 47.1888C122.507 47.5908 123.388 47.7781 124.115 47.6781C124.561 47.6168 125.132 47.4131 125.461 47.1977C125.612 47.0992 125.617 47.1343 125.396 46.6865C125.203 46.2953 124.884 45.5658 124.764 45.239C124.53 44.6034 124.477 44.2345 124.556 43.7919C124.647 43.2866 124.897 42.8816 125.401 42.4251C125.644 42.2047 125.787 42.1076 126.756 41.505C128.603 40.3563 128.951 40.101 129.347 39.6029C129.632 39.2427 129.685 39.0226 129.62 38.4642C129.52 37.6195 129.016 36.499 128.217 35.3454C127.497 34.306 126.906 33.7529 126.348 33.5952C125.84 33.4518 125.064 33.5902 124.214 33.976C123.844 34.1438 123.022 34.6525 122.658 34.939ZM122.279 36.5093C122.653 36.4626 122.979 36.6175 123.192 36.9432C123.405 37.2688 123.417 37.6297 123.224 37.9537C122.947 38.4201 122.375 38.5722 121.899 38.3065C121.671 38.1791 121.452 37.8534 121.427 37.6036C121.37 37.0414 121.731 36.5778 122.279 36.5093ZM129.277 35.7628C129.311 35.8331 129.434 36.0783 129.549 36.3078C129.83 36.868 130.097 37.4951 130.207 37.8552C130.502 38.8182 130.272 39.5487 129.435 40.3045C129.191 40.5248 129.046 40.6232 128.105 41.2073C126.668 42.0997 126.191 42.421 125.897 42.6953C125.285 43.2662 125.146 43.5824 125.226 44.2301C125.326 45.0478 125.736 46.0161 126.439 47.0927C127.298 48.4074 127.963 49.0266 128.646 49.1456C129.432 49.2826 130.424 48.9597 131.601 48.1841C132.569 47.5464 133.291 46.8729 133.849 46.0869C134.051 45.8029 134.301 45.3075 134.299 45.1962C134.299 45.153 134.257 45.0242 134.207 44.9098C134.085 44.6312 133.393 43.4759 133.18 43.1958L133.009 42.9718L131.059 44.248L129.109 45.5242L129.003 45.3624L128.897 45.2006L131.914 43.2005C134.85 41.2537 134.935 41.1953 135.101 41.007C135.709 40.3171 135.792 39.2447 135.332 38.0469C135.212 37.7347 135.143 37.6062 134.842 37.1405C134.544 36.6803 134.45 36.5568 134.225 36.3275C133.246 35.3336 132.082 34.8599 130.935 34.9894C130.441 35.0452 129.747 35.2871 129.366 35.5363L129.215 35.6351L129.277 35.7628ZM132.132 44.2402C133.131 44.1333 133.594 45.4589 132.75 46.0068C132.27 46.3184 131.666 46.1657 131.385 45.6623C131.043 45.0471 131.427 44.3157 132.132 44.2402Z" fill="#FEC830"/>
<path fill-rule="evenodd" clip-rule="evenodd" d="M323.658 40.939C322.835 41.585 322.136 42.3492 321.769 43.0025C321.549 43.3948 321.522 43.516 321.61 43.7304C321.73 44.0231 322.092 44.6576 322.467 45.2304L322.816 45.7641L324.77 44.4852L326.725 43.2063L326.831 43.3681L326.937 43.5299L324.028 45.4581C322.081 46.7491 321.077 47.4289 320.989 47.5154C320.288 48.2093 320.13 49.2299 320.539 50.4157C320.925 51.5317 321.802 52.6017 322.814 53.1888C323.507 53.5908 324.388 53.7781 325.115 53.6781C325.561 53.6168 326.132 53.4131 326.461 53.1977C326.612 53.0992 326.617 53.1343 326.396 52.6865C326.203 52.2953 325.884 51.5658 325.764 51.239C325.53 50.6034 325.477 50.2345 325.556 49.7919C325.647 49.2866 325.897 48.8816 326.401 48.4251C326.644 48.2047 326.787 48.1076 327.756 47.505C329.603 46.3563 329.951 46.101 330.347 45.6029C330.632 45.2427 330.685 45.0226 330.62 44.4642C330.52 43.6195 330.016 42.499 329.217 41.3454C328.497 40.306 327.906 39.7529 327.348 39.5952C326.84 39.4518 326.064 39.5902 325.214 39.976C324.844 40.1438 324.022 40.6525 323.658 40.939ZM323.279 42.5093C323.653 42.4626 323.979 42.6175 324.192 42.9432C324.405 43.2688 324.417 43.6297 324.224 43.9537C323.947 44.4201 323.375 44.5722 322.899 44.3065C322.671 44.1791 322.452 43.8534 322.427 43.6036C322.37 43.0414 322.731 42.5778 323.279 42.5093ZM330.277 41.7628C330.311 41.8331 330.434 42.0783 330.549 42.3078C330.83 42.868 331.097 43.4951 331.207 43.8552C331.502 44.8182 331.272 45.5487 330.435 46.3045C330.191 46.5248 330.046 46.6232 329.105 47.2073C327.668 48.0997 327.191 48.421 326.897 48.6953C326.285 49.2662 326.146 49.5824 326.226 50.2301C326.326 51.0478 326.736 52.0161 327.439 53.0927C328.298 54.4074 328.963 55.0266 329.646 55.1456C330.432 55.2826 331.424 54.9597 332.601 54.1841C333.569 53.5464 334.291 52.8729 334.849 52.0869C335.051 51.8029 335.301 51.3075 335.299 51.1962C335.299 51.153 335.257 51.0242 335.207 50.9098C335.085 50.6312 334.393 49.4759 334.18 49.1958L334.009 48.9718L332.059 50.248L330.109 51.5242L330.003 51.3624L329.897 51.2006L332.914 49.2005C335.85 47.2537 335.935 47.1953 336.101 47.007C336.709 46.3171 336.792 45.2447 336.332 44.0469C336.212 43.7347 336.143 43.6062 335.842 43.1405C335.544 42.6803 335.45 42.5568 335.225 42.3275C334.246 41.3336 333.082 40.8599 331.935 40.9894C331.441 41.0452 330.747 41.2871 330.366 41.5363L330.215 41.6351L330.277 41.7628ZM333.132 50.2402C334.131 50.1333 334.594 51.4589 333.75 52.0068C333.27 52.3184 332.666 52.1657 332.385 51.6623C332.043 51.0471 332.427 50.3157 333.132 50.2402Z" fill="#FEC830"/>
<path d="M188.644 89.2964C188.649 89.4491 188.631 89.6027 188.59 89.7508C188.602 89.7348 188.613 89.719 188.624 89.7032C188.665 89.6458 188.698 89.5948 188.723 89.5539C188.718 89.5275 188.711 89.499 188.704 89.4716L188.644 89.2964ZM188.644 89.2964C188.673 89.3756 188.694 89.4362 188.704 89.4716L188.644 89.2964ZM182.114 84.423C184.132 83.5473 184.424 83.3781 184.812 83.0142L182.114 84.423ZM182.114 84.423C181.079 84.8722 180.878 84.9653 180.56 85.1778C180.56 85.1778 180.56 85.1778 180.56 85.1778L180.838 85.5934C180.273 85.9714 179.966 86.3354 179.803 86.822C179.659 87.2482 179.658 87.6209 179.796 88.2839C179.868 88.6248 180.076 89.3931 180.21 89.8083C180.309 90.1168 180.344 90.2102 180.312 90.2583L182.114 84.423ZM178.599 78.7843C178.608 78.7844 178.618 78.7845 178.627 78.7847L178.627 78.7847C179.202 78.7976 179.67 79.1183 179.91 79.6378C180.095 80.0401 180.102 80.4688 179.927 80.8491L181.713 80.0244L182.167 79.8148L182.376 80.2687L182.457 80.4443L182.538 80.6198L182.747 81.071L182.297 81.2821L179.138 82.7639C178.08 83.2598 177.28 83.6384 176.732 83.9019C176.458 84.0337 176.249 84.1358 176.104 84.2089C176.03 84.2456 175.976 84.2737 175.938 84.294C175.918 84.3046 175.907 84.311 175.902 84.3138C175.315 84.7525 175.034 85.5148 175.24 86.6127C175.436 87.6563 176.084 88.7366 176.905 89.39L176.593 89.7811L176.905 89.39C177.453 89.8264 178.19 90.0956 178.802 90.1018L178.802 90.1018C179.09 90.1047 179.452 90.0464 179.734 89.9629L178.599 78.7843ZM178.599 78.7843C178.866 78.588 179.159 78.397 179.468 78.2206L178.599 78.7843ZM180.9 77.0616L181.038 77.5423C180.691 77.6417 179.841 78.0077 179.468 78.2206L180.9 77.0616ZM180.9 77.0616L181.038 77.5423C181.9 77.2951 182.545 77.3107 182.862 77.4534C183.216 77.6122 183.654 78.0948 184.212 79.2237C184.818 80.4507 185.113 81.5462 185.091 82.2777L180.9 77.0616ZM185.028 82.7421C185.059 82.6649 185.083 82.5449 185.091 82.2777L185.028 82.7421ZM185.028 82.7421C185.002 82.8081 184.955 82.8804 184.813 83.0142L185.028 82.7421ZM184.262 89.6557L185.763 88.9629C185.692 89.2394 185.702 89.5445 185.817 89.8481L185.817 89.8481C186.096 90.5877 186.862 90.9619 187.594 90.7415C187.121 91.1112 186.572 91.4404 185.918 91.7446C184.675 92.3235 183.794 92.4311 183.222 92.2419C182.788 92.0983 182.296 91.5847 181.636 90.1536C181.114 89.0201 180.883 88.0821 180.901 87.366C180.908 87.0854 180.949 86.9502 181.017 86.8423C181.094 86.7186 181.241 86.5742 181.573 86.3451L181.573 86.3451C181.855 86.151 182.32 85.9238 183.89 85.2434C184.896 84.8078 185.098 84.7141 185.416 84.5022L185.416 84.5021C185.931 84.1594 186.325 83.7697 186.558 83.2886C186.795 82.8017 186.842 82.2733 186.756 81.7014C186.694 81.289 186.512 80.5994 186.312 79.9924L186.312 79.9923C186.281 79.9003 186.25 79.8064 186.222 79.7215C186.572 79.6121 187.046 79.5358 187.383 79.5474C188.351 79.5808 189.303 80.1166 190.056 81.1476C190.216 81.3676 190.274 81.4681 190.496 81.9543C190.719 82.4452 190.753 82.5468 190.815 82.8249C191.073 83.9774 190.824 84.8009 190.319 85.2283L190.319 85.2284C190.316 85.2305 190.314 85.2327 190.311 85.2348C190.269 85.2706 190.225 85.3083 189.809 85.5127C189.368 85.7288 188.553 86.1117 186.955 86.861L183.678 88.3981L183.228 88.6091L183.436 89.0603L183.517 89.2359L183.599 89.4114L183.808 89.8653L184.262 89.6557ZM188.249 88.3161C188.133 88.1912 187.992 88.0861 187.827 88.0096L188.064 87.9003C188.115 88.0101 188.18 88.1548 188.249 88.3161ZM188.76 89.4888C188.762 89.4834 188.763 89.4826 188.761 89.487C188.761 89.4875 188.76 89.488 188.76 89.4888ZM177.926 81.773L177.868 81.6479C177.868 81.6479 177.868 81.6479 177.868 81.6479C177.843 81.5951 177.819 81.5421 177.796 81.4891C177.916 81.5644 178.043 81.6209 178.173 81.6589L177.926 81.773ZM180.042 89.8464C180.045 89.8449 180.045 89.8448 180.042 89.8464L180.042 89.8464Z" stroke="#A93CAC"/>
<path d="M87.2265 87.661C87.3265 87.7749 87.414 87.9047 87.4859 88.0498L87.4859 88.0498C87.7835 88.65 87.7068 89.3024 87.2987 89.8332C86.8994 90.3526 86.306 90.5953 85.6655 90.4805L87.94 92.2293L88.3364 92.5341L88.0316 92.9304L87.8843 93.122L87.737 93.3136L87.4341 93.7076L87.0382 93.4071L83.5644 90.7693C82.4017 89.8865 81.5178 89.2199 80.9078 88.7659C80.6025 88.5388 80.3675 88.3661 80.2012 88.2467C80.1178 88.1868 80.0539 88.1418 80.0081 88.1107C79.9743 88.0878 79.959 88.0783 79.9563 88.0765C79.0733 87.6504 78.0127 87.8011 76.8883 88.6888C75.8233 89.5296 74.9873 90.901 74.7343 92.2182L74.2478 92.1248L74.7343 92.2182C74.5643 93.1028 74.6968 94.1045 75.0588 94.8126L75.0588 94.8126C75.2471 95.1808 75.5749 95.6069 75.8659 95.8841C75.8691 95.8808 75.8723 95.8775 75.8756 95.8741C75.8996 95.8496 75.9259 95.8228 75.9551 95.7931C76.3466 95.3946 77.0893 94.7057 77.4418 94.4155L77.4418 94.4155C78.1319 93.8473 78.6265 93.5745 79.3029 93.4663L79.3029 93.4663C80.0763 93.3426 80.7699 93.5122 81.5819 93.9542C81.9896 94.1762 82.2002 94.3369 83.3008 95.2244C85.4365 96.9465 85.8109 97.1877 86.4637 97.415L87.2265 87.661ZM87.2265 87.661C87.7315 87.881 88.2619 88.1629 88.7778 88.4928L87.2265 87.661ZM85.2403 87.18L85.2404 87.18C85.2767 87.1479 85.2914 87.1401 85.2935 87.1391C85.2936 87.139 85.2937 87.139 85.2937 87.1389C85.2944 87.1387 85.2979 87.1378 85.3054 87.1369C85.3381 87.133 85.3941 87.1335 85.5048 87.1476C85.3971 87.1758 85.2899 87.2144 85.1843 87.2635L85.1843 87.2635C85.1613 87.2742 85.1386 87.2858 85.1162 87.298C85.163 87.2512 85.2047 87.2115 85.2403 87.18ZM84.3931 89.5021L83.7072 88.9747L83.8884 88.7392C83.8884 88.7392 83.8884 88.7392 83.8884 88.7392C84.0508 88.5279 84.2188 88.3186 84.3807 88.1235C84.3291 88.2366 84.2892 88.3563 84.2679 88.4781C84.2045 88.8415 84.2541 89.1948 84.3931 89.5021ZM90.9656 96.771C91.323 97.1023 91.7416 97.6493 91.9476 98.0775C92.4924 99.2102 92.4437 100.616 91.726 102.074C91.5702 102.39 91.4867 102.521 91.0747 103.051C90.6584 103.586 90.5598 103.69 90.2785 103.928C89.1325 104.899 88.0277 105.129 87.2015 104.794L87.2015 104.794C87.1983 104.792 87.1951 104.791 87.192 104.79C87.1126 104.758 87.0423 104.729 86.564 104.379C86.0677 104.016 85.1696 103.334 83.4136 102.001L79.8102 99.2648L79.4144 98.9642L79.1114 99.3582L78.9641 99.5498L78.8168 99.7414L78.5121 100.138L78.9084 100.443L80.7794 101.881C80.3573 101.907 79.9382 102.094 79.6149 102.458L79.6149 102.458C78.946 103.209 79.0408 104.32 79.8379 104.938C81.128 105.937 82.8926 104.716 82.558 103.249L83.156 103.708C83.0167 103.899 82.7516 104.231 82.468 104.571C82.1273 104.98 81.8098 105.34 81.6986 105.444C81.6576 105.482 81.613 105.519 81.5747 105.549C81.5733 105.549 81.5718 105.549 81.5703 105.549C81.5009 105.546 81.4055 105.537 81.2945 105.522C81.0705 105.493 80.8198 105.444 80.6412 105.392C79.5541 105.078 78.5166 104.536 77.4047 103.687C76.0346 102.64 75.3725 101.702 75.2421 100.911C75.1397 100.289 75.4573 99.4064 76.6584 97.8473C77.6161 96.604 78.534 95.7866 79.3614 95.3791C79.6864 95.219 79.8834 95.1766 80.0733 95.1911C80.2818 95.2071 80.5456 95.2962 80.9955 95.533L80.9955 95.533C81.3871 95.739 81.9193 96.1314 83.5802 97.4724C84.6482 98.3347 84.8603 98.4964 85.2677 98.7192L85.2677 98.7192C85.9338 99.0833 86.5715 99.2836 87.2103 99.2641C87.8556 99.2445 88.4441 99.0026 89.0121 98.586C89.4243 98.2837 90.0767 97.6878 90.6304 97.1161L90.6305 97.116C90.7475 96.9952 90.8679 96.8713 90.9656 96.771Z" stroke="#FEC830"/>
<path d="M246.227 21.661C246.327 21.7749 246.414 21.9047 246.486 22.0498L246.486 22.0498C246.784 22.65 246.707 23.3024 246.299 23.8332C245.899 24.3526 245.306 24.5953 244.666 24.4805L246.94 26.2293L247.336 26.5341L247.032 26.9304L246.884 27.122L246.737 27.3136L246.434 27.7076L246.038 27.4071L242.564 24.7693C241.402 23.8865 240.518 23.2199 239.908 22.7659C239.603 22.5388 239.368 22.3661 239.201 22.2467C239.118 22.1868 239.054 22.1418 239.008 22.1107C238.974 22.0878 238.959 22.0783 238.956 22.0765C238.073 21.6504 237.013 21.8011 235.888 22.6888C234.823 23.5296 233.987 24.901 233.734 26.2182L233.248 26.1248L233.734 26.2182C233.564 27.1028 233.697 28.1045 234.059 28.8126L234.059 28.8126C234.247 29.1808 234.575 29.6069 234.866 29.8841C234.869 29.8808 234.872 29.8775 234.876 29.8741C234.9 29.8496 234.926 29.8228 234.955 29.7931C235.347 29.3946 236.089 28.7057 236.442 28.4155L236.442 28.4155C237.132 27.8473 237.626 27.5745 238.303 27.4663L238.303 27.4663C239.076 27.3426 239.77 27.5122 240.582 27.9542C240.99 28.1762 241.2 28.3369 242.301 29.2244C244.436 30.9465 244.811 31.1877 245.464 31.415L246.227 21.661ZM246.227 21.661C246.731 21.881 247.262 22.1629 247.778 22.4928L246.227 21.661ZM244.24 21.18L244.24 21.18C244.277 21.1479 244.291 21.1401 244.293 21.1391C244.294 21.139 244.294 21.139 244.294 21.1389C244.294 21.1387 244.298 21.1378 244.305 21.1369C244.338 21.133 244.394 21.1335 244.505 21.1476C244.397 21.1758 244.29 21.2144 244.184 21.2635L244.184 21.2635C244.161 21.2742 244.139 21.2858 244.116 21.298C244.163 21.2512 244.205 21.2115 244.24 21.18ZM243.393 23.5021L242.707 22.9747L242.888 22.7392C242.888 22.7392 242.888 22.7392 242.888 22.7392C243.051 22.5279 243.219 22.3186 243.381 22.1235C243.329 22.2366 243.289 22.3563 243.268 22.4781C243.204 22.8415 243.254 23.1948 243.393 23.5021ZM249.966 30.771C250.323 31.1023 250.742 31.6493 250.948 32.0775C251.492 33.2102 251.444 34.6157 250.726 36.0738C250.57 36.3903 250.487 36.5208 250.075 37.0505C249.658 37.5857 249.56 37.6901 249.279 37.9283C248.133 38.899 247.028 39.1295 246.202 38.7936L246.201 38.7936C246.198 38.7923 246.195 38.791 246.192 38.7898C246.113 38.7577 246.042 38.7294 245.564 38.3791C245.068 38.0156 244.17 37.3344 242.414 36.001L238.81 33.2648L238.414 32.9642L238.111 33.3582L237.964 33.5498L237.817 33.7414L237.512 34.1377L237.908 34.4425L239.779 35.8811C239.357 35.9073 238.938 36.0943 238.615 36.4577L238.615 36.4577C237.946 37.2094 238.041 38.3202 238.838 38.9379C240.128 39.9375 241.893 38.7163 241.558 37.2486L242.156 37.7084C242.017 37.8989 241.752 38.2307 241.468 38.5709C241.127 38.9797 240.81 39.3404 240.699 39.4437C240.658 39.4819 240.613 39.5194 240.575 39.549C240.573 39.549 240.572 39.5489 240.57 39.5489C240.501 39.546 240.406 39.5371 240.294 39.5224C240.071 39.4926 239.82 39.4438 239.641 39.3921C238.554 39.0779 237.517 38.536 236.405 37.6866C235.035 36.64 234.372 35.7023 234.242 34.9112C234.14 34.2892 234.457 33.4064 235.658 31.8473C236.616 30.604 237.534 29.7866 238.361 29.3791C238.686 29.219 238.883 29.1766 239.073 29.1911C239.282 29.2071 239.546 29.2962 239.996 29.533L239.996 29.533C240.387 29.739 240.919 30.1314 242.58 31.4724C243.648 32.3347 243.86 32.4964 244.268 32.7192L244.268 32.7192C244.934 33.0833 245.571 33.2836 246.21 33.2641C246.856 33.2445 247.444 33.0026 248.012 32.586C248.424 32.2837 249.077 31.6878 249.63 31.1161L249.63 31.116C249.747 30.9952 249.868 30.8713 249.966 30.771Z" stroke="#FEC830"/>
<path fill-rule="evenodd" clip-rule="evenodd" d="M269.658 100.939C268.835 101.585 268.136 102.349 267.769 103.003C267.549 103.395 267.522 103.516 267.61 103.73C267.73 104.023 268.092 104.658 268.467 105.23L268.816 105.764L270.77 104.485L272.725 103.206L272.831 103.368L272.937 103.53L270.028 105.458C268.081 106.749 267.077 107.429 266.989 107.515C266.288 108.209 266.13 109.23 266.539 110.416C266.925 111.532 267.802 112.602 268.814 113.189C269.507 113.591 270.388 113.778 271.115 113.678C271.561 113.617 272.132 113.413 272.461 113.198C272.612 113.099 272.617 113.134 272.396 112.687C272.203 112.295 271.884 111.566 271.764 111.239C271.53 110.603 271.477 110.234 271.556 109.792C271.647 109.287 271.897 108.882 272.401 108.425C272.644 108.205 272.787 108.108 273.756 107.505C275.603 106.356 275.951 106.101 276.347 105.603C276.632 105.243 276.685 105.023 276.62 104.464C276.52 103.62 276.016 102.499 275.217 101.345C274.497 100.306 273.906 99.7529 273.348 99.5952C272.84 99.4518 272.064 99.5902 271.214 99.976C270.844 100.144 270.022 100.653 269.658 100.939ZM269.279 102.509C269.653 102.463 269.979 102.617 270.192 102.943C270.405 103.269 270.417 103.63 270.224 103.954C269.947 104.42 269.375 104.572 268.899 104.307C268.671 104.179 268.452 103.853 268.427 103.604C268.37 103.041 268.731 102.578 269.279 102.509ZM276.277 101.763C276.311 101.833 276.434 102.078 276.549 102.308C276.83 102.868 277.097 103.495 277.207 103.855C277.502 104.818 277.272 105.549 276.435 106.304C276.191 106.525 276.046 106.623 275.105 107.207C273.668 108.1 273.191 108.421 272.897 108.695C272.285 109.266 272.146 109.582 272.226 110.23C272.326 111.048 272.736 112.016 273.439 113.093C274.298 114.407 274.963 115.027 275.646 115.146C276.432 115.283 277.424 114.96 278.601 114.184C279.569 113.546 280.291 112.873 280.849 112.087C281.051 111.803 281.301 111.308 281.299 111.196C281.299 111.153 281.257 111.024 281.207 110.91C281.085 110.631 280.393 109.476 280.18 109.196L280.009 108.972L278.059 110.248L276.109 111.524L276.003 111.362L275.897 111.201L278.914 109.201C281.85 107.254 281.935 107.195 282.101 107.007C282.709 106.317 282.792 105.245 282.332 104.047C282.212 103.735 282.143 103.606 281.842 103.14C281.544 102.68 281.45 102.557 281.225 102.327C280.246 101.334 279.082 100.86 277.935 100.989C277.441 101.045 276.747 101.287 276.366 101.536L276.215 101.635L276.277 101.763ZM279.132 110.24C280.131 110.133 280.594 111.459 279.75 112.007C279.27 112.318 278.666 112.166 278.385 111.662C278.043 111.047 278.427 110.316 279.132 110.24Z" fill="#FEC830"/>
<path fill-rule="evenodd" clip-rule="evenodd" d="M44.6575 212.939C43.8353 213.585 43.136 214.349 42.7691 215.003C42.5489 215.395 42.5224 215.516 42.61 215.73C42.7296 216.023 43.092 216.658 43.4666 217.23L43.8158 217.764L45.7703 216.485L47.7249 215.206L47.8307 215.368L47.9366 215.53L45.0283 217.458C43.0809 218.749 42.0768 219.429 41.9894 219.515C41.2884 220.209 41.13 221.23 41.5393 222.416C41.9246 223.532 42.8023 224.602 43.8144 225.189C44.5073 225.591 45.3879 225.778 46.1147 225.678C46.5607 225.617 47.1317 225.413 47.4615 225.198C47.6123 225.099 47.6168 225.134 47.3958 224.687C47.2028 224.295 46.8844 223.566 46.764 223.239C46.5299 222.603 46.4769 222.234 46.5562 221.792C46.6468 221.287 46.897 220.882 47.4007 220.425C47.6437 220.205 47.7867 220.108 48.7559 219.505C50.6034 218.356 50.951 218.101 51.3465 217.603C51.6324 217.243 51.6852 217.023 51.6196 216.464C51.5204 215.62 51.0165 214.499 50.217 213.345C49.4967 212.306 48.906 211.753 48.3477 211.595C47.8395 211.452 47.0635 211.59 46.2138 211.976C45.8442 212.144 45.0221 212.653 44.6575 212.939ZM44.279 214.509C44.6531 214.463 44.9792 214.617 45.1923 214.943C45.4054 215.269 45.4168 215.63 45.2241 215.954C44.9469 216.42 44.3754 216.572 43.8991 216.307C43.6705 216.179 43.4516 215.853 43.4266 215.604C43.3703 215.041 43.7314 214.578 44.279 214.509ZM51.2773 213.763C51.3113 213.833 51.4335 214.078 51.5488 214.308C51.8302 214.868 52.0971 215.495 52.2072 215.855C52.5019 216.818 52.2715 217.549 51.4348 218.304C51.1909 218.525 51.0459 218.623 50.1052 219.207C48.6681 220.1 48.1912 220.421 47.897 220.695C47.2847 221.266 47.1463 221.582 47.2256 222.23C47.3257 223.048 47.7362 224.016 48.4391 225.093C49.2977 226.407 49.9633 227.027 50.646 227.146C51.4316 227.283 52.4241 226.96 53.6013 226.184C54.5693 225.546 55.2912 224.873 55.8491 224.087C56.0507 223.803 56.3011 223.308 56.2994 223.196C56.2987 223.153 56.2572 223.024 56.2071 222.91C56.085 222.631 55.3925 221.476 55.1796 221.196L55.0094 220.972L53.059 222.248L51.1086 223.524L51.0027 223.362L50.8969 223.201L53.9137 221.201C56.8502 219.254 56.9352 219.195 57.101 219.007C57.7086 218.317 57.7923 217.245 57.3321 216.047C57.2121 215.735 57.1426 215.606 56.8416 215.14C56.5441 214.68 56.4505 214.557 56.2247 214.327C55.2465 213.334 54.0819 212.86 52.9348 212.989C52.4411 213.045 51.7472 213.287 51.3664 213.536L51.2153 213.635L51.2773 213.763ZM54.1324 222.24C55.1307 222.133 55.5943 223.459 54.7502 224.007C54.2701 224.318 53.6656 224.166 53.3855 223.662C53.0432 223.047 53.4274 222.316 54.1324 222.24Z" fill="#FEC830"/>
<defs>
<linearGradient id="paint0_linear_126_2620" x1="76.8106" y1="114.286" x2="57.1519" y2="132.197" gradientUnits="userSpaceOnUse">
<stop offset="0.017933" stop-color="#F05C26"/>
<stop offset="1" stop-color="#FF9900"/>
</linearGradient>
<linearGradient id="paint1_linear_126_2620" x1="141.543" y1="145.739" x2="237.092" y2="198.193" gradientUnits="userSpaceOnUse">
<stop stop-color="#FF6B0A"/>
<stop offset="1" stop-color="#FFBD3E"/>
</linearGradient>
<linearGradient id="paint2_linear_126_2620" x1="141.543" y1="145.739" x2="237.092" y2="198.193" gradientUnits="userSpaceOnUse">
<stop stop-color="#FF6B0A"/>
<stop offset="1" stop-color="#FFBD3E"/>
</linearGradient>
<linearGradient id="paint3_linear_126_2620" x1="141.543" y1="145.739" x2="237.092" y2="198.193" gradientUnits="userSpaceOnUse">
<stop stop-color="#FF6B0A"/>
<stop offset="1" stop-color="#FFBD3E"/>
</linearGradient>
<linearGradient id="paint4_linear_126_2620" x1="115.171" y1="202.824" x2="281.912" y2="333.067" gradientUnits="userSpaceOnUse">
<stop stop-color="#FF6B0A"/>
<stop offset="1" stop-color="#FFBD3E"/>
</linearGradient>
<linearGradient id="paint5_linear_126_2620" x1="115.171" y1="202.824" x2="281.912" y2="333.067" gradientUnits="userSpaceOnUse">
<stop stop-color="#FF6B0A"/>
<stop offset="1" stop-color="#FFBD3E"/>
</linearGradient>
<linearGradient id="paint6_linear_126_2620" x1="260.414" y1="146.286" x2="167.635" y2="146.728" gradientUnits="userSpaceOnUse">
<stop stop-color="#B5DCF2"/>
<stop offset="1" stop-color="#B5DCF2" stop-opacity="0"/>
</linearGradient>
<clipPath id="clip0_126_2620">
<rect width="280" height="260" fill="white" transform="translate(49 72)"/>
</clipPath>
</defs>
</svg>
